<svg width="45" height="45" viewBox="0 0 45 45" fill="none" xmlns="http://www.w3.org/2000/svg">
<path d="M2.8125 30.9375H42.1875V33.75H2.8125V30.9375ZM2.8125 36.5625H42.1875V39.375H2.8125V36.5625ZM33.75 14.0625C33.1937 14.0625 32.65 14.2275 32.1875 14.5365C31.7249 14.8455 31.3645 15.2848 31.1516 15.7987C30.9387 16.3126 30.883 16.8781 30.9915 17.4237C31.1001 17.9693 31.3679 18.4704 31.7613 18.8637C32.1546 19.2571 32.6557 19.5249 33.2013 19.6335C33.7469 19.742 34.3124 19.6863 34.8263 19.4734C35.3402 19.2605 35.7795 18.9001 36.0885 18.4375C36.3975 17.975 36.5625 17.4313 36.5625 16.875C36.5625 16.1291 36.2662 15.4137 35.7387 14.8863C35.2113 14.3588 34.4959 14.0625 33.75 14.0625ZM22.5 22.5C21.3875 22.5 20.2999 22.1701 19.3749 21.552C18.4499 20.9339 17.7289 20.0554 17.3032 19.0276C16.8774 17.9998 16.766 16.8688 16.9831 15.7776C17.2001 14.6865 17.7359 13.6842 18.5225 12.8975C19.3092 12.1109 20.3115 11.5751 21.4026 11.3581C22.4938 11.141 23.6248 11.2524 24.6526 11.6782C25.6804 12.1039 26.5589 12.8249 27.177 13.7499C27.7951 14.6749 28.125 15.7625 28.125 16.875C28.1231 18.3663 27.5299 19.7959 26.4754 20.8504C25.4209 21.9049 23.9913 22.4981 22.5 22.5ZM22.5 14.0625C21.9437 14.0625 21.4 14.2275 20.9375 14.5365C20.4749 14.8455 20.1145 15.2848 19.9016 15.7987C19.6887 16.3126 19.633 16.8781 19.7415 17.4237C19.8501 17.9693 20.1179 18.4704 20.5113 18.8637C20.9046 19.2571 21.4057 19.5249 21.9513 19.6335C22.4969 19.742 23.0624 19.6863 23.5763 19.4734C24.0902 19.2605 24.5295 18.9001 24.8385 18.4375C25.1475 17.975 25.3125 17.4313 25.3125 16.875C25.3118 16.1293 25.0152 15.4144 24.4879 14.8871C23.9606 14.3598 23.2457 14.0632 22.5 14.0625ZM11.25 14.0625C10.6937 14.0625 10.15 14.2275 9.68746 14.5365C9.22495 14.8455 8.86446 15.2848 8.65159 15.7987C8.43872 16.3126 8.38302 16.8781 8.49154 17.4237C8.60006 17.9693 8.86793 18.4704 9.26126 18.8637C9.6546 19.2571 10.1557 19.5249 10.7013 19.6335C11.2469 19.742 11.8124 19.6863 12.3263 19.4734C12.8402 19.2605 13.2795 18.9001 13.5885 18.4375C13.8975 17.975 14.0625 17.4313 14.0625 16.875C14.0625 16.1291 13.7662 15.4137 13.2387 14.8863C12.7113 14.3588 11.9959 14.0625 11.25 14.0625Z" fill="white"/>
<path d="M39.375 28.125H5.625C4.87965 28.1231 4.16536 27.8262 3.63831 27.2992C3.11127 26.7721 2.81436 26.0578 2.8125 25.3125V8.4375C2.81436 7.69215 3.11127 6.97786 3.63831 6.45081C4.16536 5.92377 4.87965 5.62686 5.625 5.625H39.375C40.1203 5.62686 40.8346 5.92377 41.3617 6.45081C41.8887 6.97786 42.1856 7.69215 42.1875 8.4375V25.3125C42.1864 26.0581 41.8897 26.7728 41.3625 27.3C40.8353 27.8272 40.1206 28.1239 39.375 28.125ZM39.375 8.4375H5.625V25.3125H39.375V8.4375Z" fill="white"/>
</svg>
