<svg width="47" height="45" viewBox="0 0 47 45" fill="none" xmlns="http://www.w3.org/2000/svg">
<path d="M9.95649 3.38342L7.89885 5.36061L10.9605 8.3053L13.0152 6.32811L9.95503 3.38342H9.95649ZM36.8097 3.38342L33.748 6.32811L35.8042 8.3053L38.8644 5.36202L36.8082 3.38342H36.8097ZM23.3823 4.26092C22.9001 4.26655 22.412 4.29327 21.921 4.35092C21.9063 4.35092 21.8917 4.34811 21.8771 4.35092C15.9497 5.00483 11.2323 9.61311 10.4125 15.2915C9.75774 19.8619 11.716 24.0061 14.9793 26.6751C16.3142 27.7714 17.2171 29.2757 17.5368 30.9361V39.3736H20.8687C21.3773 40.2131 22.3053 40.7798 23.3823 40.7798C24.4594 40.7798 25.3874 40.2131 25.896 39.3736H29.2279V33.7486H29.3653V32.078C29.3653 30.0164 30.4789 27.938 32.2881 26.3222C34.7082 23.9906 36.5349 20.6789 36.5349 16.875C36.5349 9.92811 30.5929 4.19624 23.3823 4.26092ZM23.3823 7.07342C29.0306 6.99749 33.6121 11.4469 33.6121 16.875C33.6121 19.8197 32.1946 22.4128 30.2319 24.3L30.2787 24.345C28.3283 26.0757 27.0671 28.4074 26.7129 30.9375H20.3207C19.9992 28.5272 18.9251 26.1942 16.8952 24.5208C14.3129 22.4114 12.7741 19.2333 13.2885 15.6445C13.9271 11.2148 17.6624 7.6528 22.2395 7.16483C22.6174 7.11413 22.998 7.08408 23.3794 7.07483L23.3823 7.07342ZM2.92279 16.875V19.6875H7.30698V16.875H2.92279ZM39.4577 16.875V19.6875H43.8419V16.875H39.4577ZM10.9605 28.2572L7.90031 31.2005L9.95649 33.179L13.0137 30.2344L10.9605 28.2572ZM35.8042 28.2572L33.7495 30.2344L36.8082 33.179L38.8644 31.2005L35.8042 28.2572ZM20.4596 33.75H26.3051V36.5625H20.4596V33.75Z" fill="white"/>
</svg>
