<svg width="295" height="295" viewBox="0 0 295 295" fill="none" xmlns="http://www.w3.org/2000/svg">
<path d="M147.5 0C173.392 -1.13176e-06 198.827 6.81542 221.25 19.7612C243.673 32.7071 262.293 51.3272 275.239 73.75C288.185 96.1728 295 121.608 295 147.5C295 173.392 288.185 198.827 275.239 221.25C262.293 243.673 243.673 262.293 221.25 275.239C198.827 288.185 173.392 295 147.5 295C121.608 295 96.1728 288.185 73.75 275.239C51.3272 262.293 32.7071 243.673 19.7613 221.25L147.5 147.5L147.5 0Z" fill="#826AF9"/>
<path d="M19.7613 221.25C6.81543 198.827 8.23006e-07 173.392 0 147.5C-8.23005e-07 121.608 6.81542 96.1728 19.7613 73.75C32.7071 51.3272 51.3272 32.7071 73.75 19.7613C96.1728 6.81542 121.608 -3.08755e-07 147.5 0L147.5 147.5L19.7613 221.25Z" fill="#FFE700"/>
<path d="M193.295 126.781V141H190.375V126.781H193.295ZM198.617 132.689V141H195.805V130.434H198.441L198.617 132.689ZM198.207 135.346H197.445C197.445 134.564 197.546 133.861 197.748 133.236C197.95 132.605 198.233 132.068 198.598 131.625C198.962 131.176 199.395 130.834 199.896 130.6C200.404 130.359 200.971 130.238 201.596 130.238C202.09 130.238 202.543 130.31 202.953 130.453C203.363 130.596 203.715 130.824 204.008 131.137C204.307 131.449 204.535 131.863 204.691 132.377C204.854 132.891 204.936 133.52 204.936 134.262V141H202.104V134.252C202.104 133.783 202.038 133.419 201.908 133.158C201.778 132.898 201.586 132.715 201.332 132.611C201.085 132.501 200.779 132.445 200.414 132.445C200.036 132.445 199.708 132.52 199.428 132.67C199.154 132.82 198.926 133.028 198.744 133.295C198.568 133.555 198.435 133.861 198.344 134.213C198.253 134.564 198.207 134.942 198.207 135.346ZM212.25 130.434V132.426H206.098V130.434H212.25ZM207.621 127.826H210.434V137.816C210.434 138.122 210.473 138.357 210.551 138.52C210.635 138.682 210.759 138.796 210.922 138.861C211.085 138.92 211.29 138.949 211.537 138.949C211.713 138.949 211.869 138.943 212.006 138.93C212.149 138.91 212.27 138.891 212.367 138.871L212.377 140.941C212.136 141.02 211.876 141.081 211.596 141.127C211.316 141.173 211.007 141.195 210.668 141.195C210.049 141.195 209.509 141.094 209.047 140.893C208.591 140.684 208.24 140.352 207.992 139.896C207.745 139.441 207.621 138.842 207.621 138.1V127.826ZM218.715 141.195C217.895 141.195 217.159 141.065 216.508 140.805C215.857 140.538 215.303 140.17 214.848 139.701C214.398 139.232 214.053 138.689 213.812 138.07C213.572 137.445 213.451 136.781 213.451 136.078V135.688C213.451 134.887 213.565 134.154 213.793 133.49C214.021 132.826 214.346 132.25 214.77 131.762C215.199 131.273 215.72 130.899 216.332 130.639C216.944 130.372 217.634 130.238 218.402 130.238C219.151 130.238 219.815 130.362 220.395 130.609C220.974 130.857 221.459 131.208 221.85 131.664C222.247 132.12 222.546 132.667 222.748 133.305C222.95 133.936 223.051 134.639 223.051 135.414V136.586H214.652V134.711H220.287V134.496C220.287 134.105 220.215 133.757 220.072 133.451C219.936 133.139 219.727 132.891 219.447 132.709C219.167 132.527 218.809 132.436 218.373 132.436C218.002 132.436 217.683 132.517 217.416 132.68C217.149 132.842 216.931 133.07 216.762 133.363C216.599 133.656 216.475 134.001 216.391 134.398C216.312 134.789 216.273 135.219 216.273 135.688V136.078C216.273 136.501 216.332 136.892 216.449 137.25C216.573 137.608 216.745 137.917 216.967 138.178C217.195 138.438 217.468 138.64 217.787 138.783C218.113 138.926 218.48 138.998 218.891 138.998C219.398 138.998 219.87 138.9 220.307 138.705C220.749 138.503 221.13 138.201 221.449 137.797L222.816 139.281C222.595 139.6 222.292 139.906 221.908 140.199C221.531 140.492 221.075 140.733 220.541 140.922C220.007 141.104 219.398 141.195 218.715 141.195ZM227.465 132.738V141H224.652V130.434H227.299L227.465 132.738ZM230.648 130.365L230.6 132.973C230.463 132.953 230.297 132.937 230.102 132.924C229.913 132.904 229.74 132.895 229.584 132.895C229.187 132.895 228.842 132.947 228.549 133.051C228.262 133.148 228.021 133.295 227.826 133.49C227.637 133.686 227.494 133.923 227.396 134.203C227.305 134.483 227.253 134.802 227.24 135.16L226.674 134.984C226.674 134.301 226.742 133.673 226.879 133.1C227.016 132.52 227.214 132.016 227.475 131.586C227.742 131.156 228.067 130.824 228.451 130.59C228.835 130.355 229.275 130.238 229.77 130.238C229.926 130.238 230.085 130.251 230.248 130.277C230.411 130.297 230.544 130.326 230.648 130.365ZM234.73 132.689V141H231.918V130.434H234.555L234.73 132.689ZM234.32 135.346H233.559C233.559 134.564 233.66 133.861 233.861 133.236C234.063 132.605 234.346 132.068 234.711 131.625C235.076 131.176 235.508 130.834 236.01 130.6C236.518 130.359 237.084 130.238 237.709 130.238C238.204 130.238 238.656 130.31 239.066 130.453C239.477 130.596 239.828 130.824 240.121 131.137C240.421 131.449 240.648 131.863 240.805 132.377C240.967 132.891 241.049 133.52 241.049 134.262V141H238.217V134.252C238.217 133.783 238.152 133.419 238.021 133.158C237.891 132.898 237.699 132.715 237.445 132.611C237.198 132.501 236.892 132.445 236.527 132.445C236.15 132.445 235.821 132.52 235.541 132.67C235.268 132.82 235.04 133.028 234.857 133.295C234.682 133.555 234.548 133.861 234.457 134.213C234.366 134.564 234.32 134.942 234.32 135.346ZM248.891 138.617V133.91C248.891 133.572 248.835 133.282 248.725 133.041C248.614 132.794 248.441 132.602 248.207 132.465C247.979 132.328 247.683 132.26 247.318 132.26C247.006 132.26 246.736 132.315 246.508 132.426C246.28 132.53 246.104 132.683 245.98 132.885C245.857 133.08 245.795 133.311 245.795 133.578H242.982C242.982 133.129 243.087 132.702 243.295 132.299C243.503 131.895 243.806 131.54 244.203 131.234C244.6 130.922 245.072 130.678 245.619 130.502C246.173 130.326 246.791 130.238 247.475 130.238C248.295 130.238 249.024 130.375 249.662 130.648C250.3 130.922 250.801 131.332 251.166 131.879C251.537 132.426 251.723 133.109 251.723 133.93V138.451C251.723 139.031 251.758 139.506 251.83 139.877C251.902 140.242 252.006 140.561 252.143 140.834V141H249.301C249.164 140.714 249.06 140.355 248.988 139.926C248.923 139.49 248.891 139.053 248.891 138.617ZM249.262 134.564L249.281 136.156H247.709C247.338 136.156 247.016 136.199 246.742 136.283C246.469 136.368 246.244 136.488 246.068 136.645C245.893 136.794 245.762 136.97 245.678 137.172C245.6 137.374 245.561 137.595 245.561 137.836C245.561 138.077 245.616 138.295 245.727 138.49C245.837 138.679 245.997 138.829 246.205 138.939C246.413 139.044 246.658 139.096 246.938 139.096C247.361 139.096 247.729 139.011 248.041 138.842C248.354 138.673 248.594 138.464 248.764 138.217C248.939 137.969 249.031 137.735 249.037 137.514L249.779 138.705C249.675 138.972 249.532 139.249 249.35 139.535C249.174 139.822 248.949 140.092 248.676 140.346C248.402 140.593 248.074 140.798 247.689 140.961C247.305 141.117 246.85 141.195 246.322 141.195C245.652 141.195 245.043 141.062 244.496 140.795C243.956 140.521 243.526 140.147 243.207 139.672C242.895 139.19 242.738 138.643 242.738 138.031C242.738 137.478 242.842 136.986 243.051 136.557C243.259 136.127 243.565 135.766 243.969 135.473C244.379 135.173 244.89 134.949 245.502 134.799C246.114 134.643 246.824 134.564 247.631 134.564H249.262ZM256.859 126V141H254.037V126H256.859ZM206.244 156.568V162.203C206.023 162.47 205.681 162.76 205.219 163.072C204.757 163.378 204.161 163.642 203.432 163.863C202.702 164.085 201.82 164.195 200.785 164.195C199.867 164.195 199.031 164.046 198.275 163.746C197.52 163.44 196.869 162.994 196.322 162.408C195.782 161.822 195.365 161.106 195.072 160.26C194.779 159.407 194.633 158.434 194.633 157.34V156.451C194.633 155.357 194.773 154.384 195.053 153.531C195.339 152.678 195.746 151.959 196.273 151.373C196.801 150.787 197.429 150.341 198.158 150.035C198.887 149.729 199.698 149.576 200.59 149.576C201.827 149.576 202.842 149.778 203.637 150.182C204.431 150.579 205.036 151.132 205.453 151.842C205.876 152.545 206.137 153.352 206.234 154.264H203.393C203.321 153.782 203.184 153.362 202.982 153.004C202.781 152.646 202.491 152.366 202.113 152.164C201.742 151.962 201.26 151.861 200.668 151.861C200.18 151.861 199.743 151.962 199.359 152.164C198.982 152.359 198.663 152.649 198.402 153.033C198.142 153.417 197.943 153.893 197.807 154.459C197.67 155.025 197.602 155.683 197.602 156.432V157.34C197.602 158.082 197.673 158.74 197.816 159.312C197.96 159.879 198.171 160.357 198.451 160.748C198.738 161.132 199.089 161.422 199.506 161.617C199.923 161.812 200.408 161.91 200.961 161.91C201.423 161.91 201.807 161.871 202.113 161.793C202.426 161.715 202.676 161.62 202.865 161.51C203.061 161.393 203.21 161.282 203.314 161.178V158.658H200.639V156.568H206.244ZM211.244 155.738V164H208.432V153.434H211.078L211.244 155.738ZM214.428 153.365L214.379 155.973C214.242 155.953 214.076 155.937 213.881 155.924C213.692 155.904 213.52 155.895 213.363 155.895C212.966 155.895 212.621 155.947 212.328 156.051C212.042 156.148 211.801 156.295 211.605 156.49C211.417 156.686 211.273 156.923 211.176 157.203C211.085 157.483 211.033 157.802 211.02 158.16L210.453 157.984C210.453 157.301 210.521 156.673 210.658 156.1C210.795 155.52 210.993 155.016 211.254 154.586C211.521 154.156 211.846 153.824 212.23 153.59C212.615 153.355 213.054 153.238 213.549 153.238C213.705 153.238 213.865 153.251 214.027 153.277C214.19 153.297 214.324 153.326 214.428 153.365ZM221.127 161.617V156.91C221.127 156.572 221.072 156.282 220.961 156.041C220.85 155.794 220.678 155.602 220.443 155.465C220.215 155.328 219.919 155.26 219.555 155.26C219.242 155.26 218.972 155.315 218.744 155.426C218.516 155.53 218.34 155.683 218.217 155.885C218.093 156.08 218.031 156.311 218.031 156.578H215.219C215.219 156.129 215.323 155.702 215.531 155.299C215.74 154.895 216.042 154.54 216.439 154.234C216.837 153.922 217.309 153.678 217.855 153.502C218.409 153.326 219.027 153.238 219.711 153.238C220.531 153.238 221.26 153.375 221.898 153.648C222.536 153.922 223.038 154.332 223.402 154.879C223.773 155.426 223.959 156.109 223.959 156.93V161.451C223.959 162.031 223.995 162.506 224.066 162.877C224.138 163.242 224.242 163.561 224.379 163.834V164H221.537C221.4 163.714 221.296 163.355 221.225 162.926C221.16 162.49 221.127 162.053 221.127 161.617ZM221.498 157.564L221.518 159.156H219.945C219.574 159.156 219.252 159.199 218.979 159.283C218.705 159.368 218.48 159.488 218.305 159.645C218.129 159.794 217.999 159.97 217.914 160.172C217.836 160.374 217.797 160.595 217.797 160.836C217.797 161.077 217.852 161.295 217.963 161.49C218.074 161.679 218.233 161.829 218.441 161.939C218.65 162.044 218.894 162.096 219.174 162.096C219.597 162.096 219.965 162.011 220.277 161.842C220.59 161.673 220.831 161.464 221 161.217C221.176 160.969 221.267 160.735 221.273 160.514L222.016 161.705C221.911 161.972 221.768 162.249 221.586 162.535C221.41 162.822 221.186 163.092 220.912 163.346C220.639 163.593 220.31 163.798 219.926 163.961C219.542 164.117 219.086 164.195 218.559 164.195C217.888 164.195 217.279 164.062 216.732 163.795C216.192 163.521 215.762 163.147 215.443 162.672C215.131 162.19 214.975 161.643 214.975 161.031C214.975 160.478 215.079 159.986 215.287 159.557C215.495 159.127 215.801 158.766 216.205 158.473C216.615 158.173 217.126 157.949 217.738 157.799C218.35 157.643 219.06 157.564 219.867 157.564H221.498ZM228.881 155.689V164H226.068V153.434H228.705L228.881 155.689ZM228.471 158.346H227.709C227.709 157.564 227.81 156.861 228.012 156.236C228.214 155.605 228.497 155.068 228.861 154.625C229.226 154.176 229.659 153.834 230.16 153.6C230.668 153.359 231.234 153.238 231.859 153.238C232.354 153.238 232.807 153.31 233.217 153.453C233.627 153.596 233.979 153.824 234.271 154.137C234.571 154.449 234.799 154.863 234.955 155.377C235.118 155.891 235.199 156.52 235.199 157.262V164H232.367V157.252C232.367 156.783 232.302 156.419 232.172 156.158C232.042 155.898 231.85 155.715 231.596 155.611C231.348 155.501 231.042 155.445 230.678 155.445C230.3 155.445 229.971 155.52 229.691 155.67C229.418 155.82 229.19 156.028 229.008 156.295C228.832 156.555 228.699 156.861 228.607 157.213C228.516 157.564 228.471 157.942 228.471 158.346ZM242.514 153.434V155.426H236.361V153.434H242.514ZM237.885 150.826H240.697V160.816C240.697 161.122 240.736 161.357 240.814 161.52C240.899 161.682 241.023 161.796 241.186 161.861C241.348 161.92 241.553 161.949 241.801 161.949C241.977 161.949 242.133 161.943 242.27 161.93C242.413 161.91 242.533 161.891 242.631 161.871L242.641 163.941C242.4 164.02 242.139 164.081 241.859 164.127C241.579 164.173 241.27 164.195 240.932 164.195C240.313 164.195 239.773 164.094 239.311 163.893C238.855 163.684 238.503 163.352 238.256 162.896C238.008 162.441 237.885 161.842 237.885 161.1V150.826ZM249.828 161.08C249.828 160.878 249.77 160.696 249.652 160.533C249.535 160.37 249.317 160.221 248.998 160.084C248.686 159.941 248.233 159.811 247.641 159.693C247.107 159.576 246.609 159.43 246.146 159.254C245.691 159.072 245.294 158.854 244.955 158.6C244.623 158.346 244.363 158.046 244.174 157.701C243.985 157.35 243.891 156.949 243.891 156.5C243.891 156.057 243.985 155.641 244.174 155.25C244.369 154.859 244.646 154.514 245.004 154.215C245.368 153.909 245.811 153.671 246.332 153.502C246.859 153.326 247.452 153.238 248.109 153.238C249.027 153.238 249.815 153.385 250.473 153.678C251.137 153.971 251.645 154.374 251.996 154.889C252.354 155.396 252.533 155.976 252.533 156.627H249.721C249.721 156.354 249.662 156.109 249.545 155.895C249.434 155.673 249.258 155.501 249.018 155.377C248.783 155.247 248.477 155.182 248.1 155.182C247.787 155.182 247.517 155.237 247.289 155.348C247.061 155.452 246.885 155.595 246.762 155.777C246.645 155.953 246.586 156.148 246.586 156.363C246.586 156.526 246.618 156.673 246.684 156.803C246.755 156.926 246.869 157.04 247.025 157.145C247.182 157.249 247.383 157.346 247.631 157.438C247.885 157.522 248.197 157.6 248.568 157.672C249.33 157.828 250.01 158.033 250.609 158.287C251.208 158.535 251.684 158.873 252.035 159.303C252.387 159.726 252.562 160.283 252.562 160.973C252.562 161.441 252.458 161.871 252.25 162.262C252.042 162.652 251.742 162.994 251.352 163.287C250.961 163.574 250.492 163.798 249.945 163.961C249.405 164.117 248.796 164.195 248.119 164.195C247.136 164.195 246.303 164.02 245.619 163.668C244.942 163.316 244.428 162.87 244.076 162.33C243.731 161.783 243.559 161.223 243.559 160.65H246.225C246.238 161.035 246.335 161.344 246.518 161.578C246.706 161.812 246.944 161.982 247.23 162.086C247.523 162.19 247.839 162.242 248.178 162.242C248.542 162.242 248.845 162.193 249.086 162.096C249.327 161.992 249.509 161.855 249.633 161.686C249.763 161.51 249.828 161.308 249.828 161.08ZM219.848 195.752V210H217.035V198.994L213.656 200.068V197.852L219.545 195.752H219.848ZM234.047 201.641V204.102C234.047 205.169 233.933 206.09 233.705 206.865C233.477 207.633 233.148 208.265 232.719 208.76C232.296 209.248 231.791 209.609 231.205 209.844C230.619 210.078 229.968 210.195 229.252 210.195C228.679 210.195 228.145 210.124 227.65 209.98C227.156 209.831 226.71 209.6 226.312 209.287C225.922 208.975 225.583 208.581 225.297 208.105C225.017 207.624 224.802 207.051 224.652 206.387C224.503 205.723 224.428 204.961 224.428 204.102V201.641C224.428 200.573 224.542 199.658 224.77 198.896C225.004 198.128 225.333 197.5 225.756 197.012C226.186 196.523 226.693 196.165 227.279 195.938C227.865 195.703 228.516 195.586 229.232 195.586C229.805 195.586 230.336 195.661 230.824 195.811C231.319 195.954 231.765 196.178 232.162 196.484C232.559 196.79 232.898 197.184 233.178 197.666C233.458 198.141 233.673 198.711 233.822 199.375C233.972 200.033 234.047 200.788 234.047 201.641ZM231.225 204.473V201.26C231.225 200.745 231.195 200.296 231.137 199.912C231.085 199.528 231.003 199.202 230.893 198.936C230.782 198.662 230.645 198.441 230.482 198.271C230.32 198.102 230.134 197.979 229.926 197.9C229.717 197.822 229.486 197.783 229.232 197.783C228.913 197.783 228.63 197.845 228.383 197.969C228.142 198.092 227.937 198.291 227.768 198.564C227.598 198.831 227.468 199.189 227.377 199.639C227.292 200.081 227.25 200.622 227.25 201.26V204.473C227.25 204.987 227.276 205.439 227.328 205.83C227.387 206.221 227.471 206.556 227.582 206.836C227.699 207.109 227.836 207.334 227.992 207.51C228.155 207.679 228.34 207.803 228.549 207.881C228.764 207.959 228.998 207.998 229.252 207.998C229.564 207.998 229.841 207.936 230.082 207.812C230.329 207.682 230.538 207.48 230.707 207.207C230.883 206.927 231.013 206.562 231.098 206.113C231.182 205.664 231.225 205.117 231.225 204.473Z" fill="white"/>
<path d="M60.4863 67.7148V70H52.918V67.7148H60.4863ZM53.875 55.7812V70H50.9453V55.7812H53.875ZM59.5 61.5723V63.7988H52.918V61.5723H59.5ZM60.4766 55.7812V58.0762H52.918V55.7812H60.4766ZM64.2852 59.4336L66.0332 62.6465L67.8301 59.4336H70.8281L67.8398 64.5996L70.9648 70H67.957L66.0527 66.6016L64.1484 70H61.1406L64.2656 64.5996L61.2773 59.4336H64.2852ZM77.3711 59.4336V61.4258H71.2188V59.4336H77.3711ZM72.7422 56.8262H75.5547V66.8164C75.5547 67.1224 75.5938 67.3568 75.6719 67.5195C75.7565 67.6823 75.8802 67.7962 76.043 67.8613C76.2057 67.9199 76.4108 67.9492 76.6582 67.9492C76.834 67.9492 76.9902 67.9427 77.127 67.9297C77.2702 67.9102 77.3906 67.8906 77.4883 67.8711L77.498 69.9414C77.2572 70.0195 76.9967 70.0814 76.7168 70.127C76.4368 70.1725 76.1276 70.1953 75.7891 70.1953C75.1706 70.1953 74.6302 70.0944 74.168 69.8926C73.7122 69.6842 73.3607 69.3522 73.1133 68.8965C72.8659 68.4408 72.7422 67.8418 72.7422 67.0996V56.8262ZM83.8359 70.1953C83.0156 70.1953 82.2799 70.0651 81.6289 69.8047C80.9779 69.5378 80.4245 69.1699 79.9688 68.7012C79.5195 68.2324 79.1745 67.6888 78.9336 67.0703C78.6927 66.4453 78.5723 65.7812 78.5723 65.0781V64.6875C78.5723 63.8867 78.6862 63.1543 78.9141 62.4902C79.1419 61.8262 79.4674 61.25 79.8906 60.7617C80.3203 60.2734 80.8411 59.8991 81.4531 59.6387C82.0651 59.3717 82.7552 59.2383 83.5234 59.2383C84.2721 59.2383 84.9362 59.362 85.5156 59.6094C86.0951 59.8568 86.5801 60.2083 86.9707 60.6641C87.3678 61.1198 87.6673 61.6667 87.8691 62.3047C88.071 62.9362 88.1719 63.6393 88.1719 64.4141V65.5859H79.7734V63.7109H85.4082V63.4961C85.4082 63.1055 85.3366 62.7572 85.1934 62.4512C85.0566 62.1387 84.8483 61.8913 84.5684 61.709C84.2884 61.5267 83.9303 61.4355 83.4941 61.4355C83.123 61.4355 82.804 61.5169 82.5371 61.6797C82.2702 61.8424 82.0521 62.0703 81.8828 62.3633C81.7201 62.6562 81.5964 63.0013 81.5117 63.3984C81.4336 63.7891 81.3945 64.2188 81.3945 64.6875V65.0781C81.3945 65.5013 81.4531 65.8919 81.5703 66.25C81.694 66.6081 81.8665 66.9173 82.0879 67.1777C82.3158 67.4382 82.5892 67.64 82.9082 67.7832C83.2337 67.9264 83.6016 67.998 84.0117 67.998C84.5195 67.998 84.9915 67.9004 85.4277 67.7051C85.8704 67.5033 86.2513 67.2005 86.5703 66.7969L87.9375 68.2812C87.7161 68.6003 87.4134 68.9062 87.0293 69.1992C86.6517 69.4922 86.196 69.7331 85.6621 69.9219C85.1283 70.1042 84.5195 70.1953 83.8359 70.1953ZM92.5859 61.7383V70H89.7734V59.4336H92.4199L92.5859 61.7383ZM95.7695 59.3652L95.7207 61.9727C95.584 61.9531 95.418 61.9368 95.2227 61.9238C95.0339 61.9043 94.8613 61.8945 94.7051 61.8945C94.3079 61.8945 93.9629 61.9466 93.6699 62.0508C93.3835 62.1484 93.1426 62.2949 92.9473 62.4902C92.7585 62.6855 92.6152 62.9232 92.5176 63.2031C92.4264 63.4831 92.3743 63.8021 92.3613 64.1602L91.7949 63.9844C91.7949 63.3008 91.8633 62.6725 92 62.0996C92.1367 61.5202 92.3353 61.0156 92.5957 60.5859C92.8626 60.1562 93.1882 59.8242 93.5723 59.5898C93.9564 59.3555 94.3958 59.2383 94.8906 59.2383C95.0469 59.2383 95.2064 59.2513 95.3691 59.2773C95.5319 59.2969 95.6654 59.3262 95.7695 59.3652ZM99.9102 61.6211V70H97.0879V59.4336H99.7344L99.9102 61.6211ZM99.5195 64.3457H98.7383C98.7383 63.61 98.8262 62.9329 99.002 62.3145C99.1842 61.6895 99.4479 61.1491 99.793 60.6934C100.145 60.2311 100.577 59.873 101.092 59.6191C101.606 59.3652 102.202 59.2383 102.879 59.2383C103.348 59.2383 103.777 59.3099 104.168 59.4531C104.559 59.5898 104.894 59.8079 105.174 60.1074C105.46 60.4004 105.682 60.7845 105.838 61.2598C105.994 61.7285 106.072 62.2917 106.072 62.9492V70H103.26V63.2617C103.26 62.7799 103.195 62.4089 103.064 62.1484C102.934 61.888 102.749 61.7057 102.508 61.6016C102.273 61.4974 101.99 61.4453 101.658 61.4453C101.294 61.4453 100.975 61.5202 100.701 61.6699C100.434 61.8197 100.213 62.028 100.037 62.2949C99.8613 62.5553 99.7311 62.8613 99.6465 63.2129C99.5618 63.5645 99.5195 63.9421 99.5195 64.3457ZM105.809 64.0234L104.803 64.1504C104.803 63.4603 104.887 62.819 105.057 62.2266C105.232 61.6341 105.49 61.1133 105.828 60.6641C106.173 60.2148 106.6 59.8665 107.107 59.6191C107.615 59.3652 108.201 59.2383 108.865 59.2383C109.373 59.2383 109.835 59.3132 110.252 59.4629C110.669 59.6061 111.023 59.8372 111.316 60.1562C111.616 60.4688 111.844 60.8789 112 61.3867C112.163 61.8945 112.244 62.5163 112.244 63.252V70H109.422V63.252C109.422 62.7637 109.357 62.3926 109.227 62.1387C109.103 61.8783 108.921 61.6992 108.68 61.6016C108.445 61.4974 108.165 61.4453 107.84 61.4453C107.501 61.4453 107.205 61.5137 106.951 61.6504C106.697 61.7806 106.486 61.9629 106.316 62.1973C106.147 62.4316 106.02 62.7051 105.936 63.0176C105.851 63.3236 105.809 63.6589 105.809 64.0234ZM120.125 67.6172V62.9102C120.125 62.5716 120.07 62.2819 119.959 62.041C119.848 61.7936 119.676 61.6016 119.441 61.4648C119.214 61.3281 118.917 61.2598 118.553 61.2598C118.24 61.2598 117.97 61.3151 117.742 61.4258C117.514 61.5299 117.339 61.6829 117.215 61.8848C117.091 62.0801 117.029 62.3112 117.029 62.5781H114.217C114.217 62.1289 114.321 61.7025 114.529 61.2988C114.738 60.8952 115.04 60.5404 115.438 60.2344C115.835 59.9219 116.307 59.6777 116.854 59.502C117.407 59.3262 118.025 59.2383 118.709 59.2383C119.529 59.2383 120.258 59.375 120.896 59.6484C121.535 59.9219 122.036 60.332 122.4 60.8789C122.771 61.4258 122.957 62.1094 122.957 62.9297V67.4512C122.957 68.0306 122.993 68.5059 123.064 68.877C123.136 69.2415 123.24 69.5605 123.377 69.834V70H120.535C120.398 69.7135 120.294 69.3555 120.223 68.9258C120.158 68.4896 120.125 68.0534 120.125 67.6172ZM120.496 63.5645L120.516 65.1562H118.943C118.572 65.1562 118.25 65.1986 117.977 65.2832C117.703 65.3678 117.479 65.4883 117.303 65.6445C117.127 65.7943 116.997 65.9701 116.912 66.1719C116.834 66.3737 116.795 66.5951 116.795 66.8359C116.795 67.0768 116.85 67.2949 116.961 67.4902C117.072 67.679 117.231 67.8288 117.439 67.9395C117.648 68.0436 117.892 68.0957 118.172 68.0957C118.595 68.0957 118.963 68.0111 119.275 67.8418C119.588 67.6725 119.829 67.4642 119.998 67.2168C120.174 66.9694 120.265 66.735 120.271 66.5137L121.014 67.7051C120.91 67.972 120.766 68.2487 120.584 68.5352C120.408 68.8216 120.184 69.0918 119.91 69.3457C119.637 69.5931 119.308 69.7982 118.924 69.9609C118.54 70.1172 118.084 70.1953 117.557 70.1953C116.886 70.1953 116.277 70.0618 115.73 69.7949C115.19 69.5215 114.76 69.1471 114.441 68.6719C114.129 68.1901 113.973 67.6432 113.973 67.0312C113.973 66.4779 114.077 65.9863 114.285 65.5566C114.493 65.127 114.799 64.7656 115.203 64.4727C115.613 64.1732 116.124 63.9486 116.736 63.7988C117.348 63.6426 118.058 63.5645 118.865 63.5645H120.496ZM128.094 55V70H125.271V55H128.094ZM72.2441 85.5684V91.2031C72.0228 91.4701 71.681 91.7598 71.2188 92.0723C70.7565 92.3783 70.1608 92.6419 69.4316 92.8633C68.7025 93.0846 67.8203 93.1953 66.7852 93.1953C65.8672 93.1953 65.0306 93.0456 64.2754 92.7461C63.5202 92.4401 62.8691 91.9941 62.3223 91.4082C61.7819 90.8223 61.3652 90.1061 61.0723 89.2598C60.7793 88.4069 60.6328 87.4336 60.6328 86.3398V85.4512C60.6328 84.3574 60.7728 83.3841 61.0527 82.5312C61.3392 81.6784 61.7461 80.959 62.2734 80.373C62.8008 79.7871 63.429 79.3411 64.1582 79.0352C64.8874 78.7292 65.6979 78.5762 66.5898 78.5762C67.8268 78.5762 68.8424 78.778 69.6367 79.1816C70.431 79.5788 71.0365 80.1322 71.4531 80.8418C71.8763 81.5449 72.1367 82.3522 72.2344 83.2637H69.3926C69.321 82.7819 69.1842 82.362 68.9824 82.0039C68.7806 81.6458 68.4909 81.3659 68.1133 81.1641C67.7422 80.9622 67.2604 80.8613 66.668 80.8613C66.1797 80.8613 65.7435 80.9622 65.3594 81.1641C64.9818 81.3594 64.6628 81.6491 64.4023 82.0332C64.1419 82.4173 63.9434 82.8926 63.8066 83.459C63.6699 84.0254 63.6016 84.6829 63.6016 85.4316V86.3398C63.6016 87.082 63.6732 87.7396 63.8164 88.3125C63.9596 88.8789 64.1712 89.3574 64.4512 89.748C64.7376 90.1322 65.0892 90.4219 65.5059 90.6172C65.9225 90.8125 66.4076 90.9102 66.9609 90.9102C67.4232 90.9102 67.8073 90.8711 68.1133 90.793C68.4258 90.7148 68.6764 90.6204 68.8652 90.5098C69.0605 90.3926 69.2103 90.2819 69.3145 90.1777V87.6582H66.6387V85.5684H72.2441ZM77.2441 84.7383V93H74.4316V82.4336H77.0781L77.2441 84.7383ZM80.4277 82.3652L80.3789 84.9727C80.2422 84.9531 80.0762 84.9368 79.8809 84.9238C79.6921 84.9043 79.5195 84.8945 79.3633 84.8945C78.9661 84.8945 78.6211 84.9466 78.3281 85.0508C78.0417 85.1484 77.8008 85.2949 77.6055 85.4902C77.4167 85.6855 77.2734 85.9232 77.1758 86.2031C77.0846 86.4831 77.0326 86.8021 77.0195 87.1602L76.4531 86.9844C76.4531 86.3008 76.5215 85.6725 76.6582 85.0996C76.7949 84.5202 76.9935 84.0156 77.2539 83.5859C77.5208 83.1562 77.8464 82.8242 78.2305 82.5898C78.6146 82.3555 79.054 82.2383 79.5488 82.2383C79.7051 82.2383 79.8646 82.2513 80.0273 82.2773C80.1901 82.2969 80.3236 82.3262 80.4277 82.3652ZM87.127 90.6172V85.9102C87.127 85.5716 87.0716 85.2819 86.9609 85.041C86.8503 84.7936 86.6777 84.6016 86.4434 84.4648C86.2155 84.3281 85.9193 84.2598 85.5547 84.2598C85.2422 84.2598 84.972 84.3151 84.7441 84.4258C84.5163 84.5299 84.3405 84.6829 84.2168 84.8848C84.0931 85.0801 84.0312 85.3112 84.0312 85.5781H81.2188C81.2188 85.1289 81.3229 84.7025 81.5312 84.2988C81.7396 83.8952 82.0423 83.5404 82.4395 83.2344C82.8366 82.9219 83.3086 82.6777 83.8555 82.502C84.4089 82.3262 85.0273 82.2383 85.7109 82.2383C86.5312 82.2383 87.2604 82.375 87.8984 82.6484C88.5365 82.9219 89.0378 83.332 89.4023 83.8789C89.7734 84.4258 89.959 85.1094 89.959 85.9297V90.4512C89.959 91.0306 89.9948 91.5059 90.0664 91.877C90.138 92.2415 90.2422 92.5605 90.3789 92.834V93H87.5371C87.4004 92.7135 87.2962 92.3555 87.2246 91.9258C87.1595 91.4896 87.127 91.0534 87.127 90.6172ZM87.498 86.5645L87.5176 88.1562H85.9453C85.5742 88.1562 85.252 88.1986 84.9785 88.2832C84.7051 88.3678 84.4805 88.4883 84.3047 88.6445C84.1289 88.7943 83.9987 88.9701 83.9141 89.1719C83.8359 89.3737 83.7969 89.5951 83.7969 89.8359C83.7969 90.0768 83.8522 90.2949 83.9629 90.4902C84.0736 90.679 84.2331 90.8288 84.4414 90.9395C84.6497 91.0436 84.8939 91.0957 85.1738 91.0957C85.597 91.0957 85.9648 91.0111 86.2773 90.8418C86.5898 90.6725 86.8307 90.4642 87 90.2168C87.1758 89.9694 87.2669 89.735 87.2734 89.5137L88.0156 90.7051C87.9115 90.972 87.7682 91.2487 87.5859 91.5352C87.4102 91.8216 87.1855 92.0918 86.9121 92.3457C86.6387 92.5931 86.3099 92.7982 85.9258 92.9609C85.5417 93.1172 85.0859 93.1953 84.5586 93.1953C83.888 93.1953 83.2793 93.0618 82.7324 92.7949C82.1921 92.5215 81.7624 92.1471 81.4434 91.6719C81.1309 91.1901 80.9746 90.6432 80.9746 90.0312C80.9746 89.4779 81.0788 88.9863 81.2871 88.5566C81.4954 88.127 81.8014 87.7656 82.2051 87.4727C82.6152 87.1732 83.1263 86.9486 83.7383 86.7988C84.3503 86.6426 85.0599 86.5645 85.8672 86.5645H87.498ZM94.8809 84.6895V93H92.0684V82.4336H94.7051L94.8809 84.6895ZM94.4707 87.3457H93.709C93.709 86.5645 93.8099 85.8613 94.0117 85.2363C94.2135 84.6048 94.4967 84.0677 94.8613 83.625C95.2259 83.1758 95.6589 82.834 96.1602 82.5996C96.668 82.3587 97.2344 82.2383 97.8594 82.2383C98.3542 82.2383 98.8066 82.3099 99.2168 82.4531C99.627 82.5964 99.9785 82.8242 100.271 83.1367C100.571 83.4492 100.799 83.8626 100.955 84.377C101.118 84.8913 101.199 85.5195 101.199 86.2617V93H98.3672V86.252C98.3672 85.7832 98.3021 85.4186 98.1719 85.1582C98.0417 84.8978 97.8496 84.7155 97.5957 84.6113C97.3483 84.5007 97.0423 84.4453 96.6777 84.4453C96.3001 84.4453 95.9714 84.5202 95.6914 84.6699C95.418 84.8197 95.1901 85.028 95.0078 85.2949C94.832 85.5553 94.6986 85.8613 94.6074 86.2129C94.5163 86.5645 94.4707 86.9421 94.4707 87.3457ZM108.514 82.4336V84.4258H102.361V82.4336H108.514ZM103.885 79.8262H106.697V89.8164C106.697 90.1224 106.736 90.3568 106.814 90.5195C106.899 90.6823 107.023 90.7962 107.186 90.8613C107.348 90.9199 107.553 90.9492 107.801 90.9492C107.977 90.9492 108.133 90.9427 108.27 90.9297C108.413 90.9102 108.533 90.8906 108.631 90.8711L108.641 92.9414C108.4 93.0195 108.139 93.0814 107.859 93.127C107.579 93.1725 107.27 93.1953 106.932 93.1953C106.313 93.1953 105.773 93.0944 105.311 92.8926C104.855 92.6842 104.503 92.3522 104.256 91.8965C104.008 91.4408 103.885 90.8418 103.885 90.0996V79.8262ZM115.828 90.0801C115.828 89.8783 115.77 89.696 115.652 89.5332C115.535 89.3704 115.317 89.2207 114.998 89.084C114.686 88.9408 114.233 88.8105 113.641 88.6934C113.107 88.5762 112.609 88.4297 112.146 88.2539C111.691 88.0716 111.294 87.8535 110.955 87.5996C110.623 87.3457 110.363 87.0462 110.174 86.7012C109.985 86.3496 109.891 85.9492 109.891 85.5C109.891 85.0573 109.985 84.6406 110.174 84.25C110.369 83.8594 110.646 83.5143 111.004 83.2148C111.368 82.9089 111.811 82.6712 112.332 82.502C112.859 82.3262 113.452 82.2383 114.109 82.2383C115.027 82.2383 115.815 82.3848 116.473 82.6777C117.137 82.9707 117.645 83.3743 117.996 83.8887C118.354 84.3965 118.533 84.9759 118.533 85.627H115.721C115.721 85.3535 115.662 85.1094 115.545 84.8945C115.434 84.6732 115.258 84.5007 115.018 84.377C114.783 84.2467 114.477 84.1816 114.1 84.1816C113.787 84.1816 113.517 84.237 113.289 84.3477C113.061 84.4518 112.885 84.5951 112.762 84.7773C112.645 84.9531 112.586 85.1484 112.586 85.3633C112.586 85.526 112.618 85.6725 112.684 85.8027C112.755 85.9264 112.869 86.0404 113.025 86.1445C113.182 86.2487 113.383 86.3464 113.631 86.4375C113.885 86.5221 114.197 86.6003 114.568 86.6719C115.33 86.8281 116.01 87.0332 116.609 87.2871C117.208 87.5345 117.684 87.873 118.035 88.3027C118.387 88.7259 118.562 89.2826 118.562 89.9727C118.562 90.4414 118.458 90.8711 118.25 91.2617C118.042 91.6523 117.742 91.9941 117.352 92.2871C116.961 92.5736 116.492 92.7982 115.945 92.9609C115.405 93.1172 114.796 93.1953 114.119 93.1953C113.136 93.1953 112.303 93.0195 111.619 92.668C110.942 92.3164 110.428 91.8704 110.076 91.3301C109.731 90.7832 109.559 90.2233 109.559 89.6504H112.225C112.238 90.0345 112.335 90.3438 112.518 90.5781C112.706 90.8125 112.944 90.9818 113.23 91.0859C113.523 91.1901 113.839 91.2422 114.178 91.2422C114.542 91.2422 114.845 91.1934 115.086 91.0957C115.327 90.9915 115.509 90.8548 115.633 90.6855C115.763 90.5098 115.828 90.3079 115.828 90.0801ZM87.3809 132.525L85.1348 131.988L85.9453 124.781H93.9336V127.057H88.2598L87.9082 130.211C88.097 130.1 88.3835 129.983 88.7676 129.859C89.1517 129.729 89.5814 129.664 90.0566 129.664C90.7467 129.664 91.3587 129.771 91.8926 129.986C92.4264 130.201 92.8789 130.514 93.25 130.924C93.6276 131.334 93.9141 131.835 94.1094 132.428C94.3047 133.02 94.4023 133.691 94.4023 134.439C94.4023 135.071 94.3047 135.673 94.1094 136.246C93.9141 136.812 93.6178 137.32 93.2207 137.77C92.8236 138.212 92.3255 138.561 91.7266 138.814C91.1276 139.068 90.418 139.195 89.5977 139.195C88.9857 139.195 88.3932 139.104 87.8203 138.922C87.2539 138.74 86.7428 138.469 86.2871 138.111C85.8379 137.753 85.4766 137.32 85.2031 136.812C84.9362 136.298 84.7962 135.712 84.7832 135.055H87.5762C87.6152 135.458 87.7194 135.807 87.8887 136.1C88.0645 136.386 88.2956 136.607 88.582 136.764C88.8685 136.92 89.2038 136.998 89.5879 136.998C89.946 136.998 90.252 136.93 90.5059 136.793C90.7598 136.656 90.9648 136.467 91.1211 136.227C91.2773 135.979 91.3913 135.693 91.4629 135.367C91.541 135.035 91.5801 134.677 91.5801 134.293C91.5801 133.909 91.5345 133.561 91.4434 133.248C91.3522 132.936 91.2122 132.665 91.0234 132.438C90.8346 132.21 90.5938 132.034 90.3008 131.91C90.0143 131.786 89.679 131.725 89.2949 131.725C88.7741 131.725 88.3704 131.806 88.084 131.969C87.804 132.132 87.5697 132.317 87.3809 132.525Z" fill="white"/>
</svg>
