<svg width="470" height="299" viewBox="0 0 470 299" fill="none" xmlns="http://www.w3.org/2000/svg">
<path d="M369.259 171.05L369.608 171.126V174.097C369.224 174.307 368.95 174.683 368.95 175.125C368.95 175.55 369.204 175.906 369.56 176.128L368.703 179.289C368.607 179.639 368.82 180 369.122 180H371.411C371.713 180 371.925 179.638 371.829 179.335L370.972 176.13C371.329 175.907 371.582 175.552 371.582 175.125C371.582 174.681 371.308 174.306 370.924 174.097V171.425L373.775 172.059L373.775 175.125C373.775 178.718 376.915 181.625 380.794 181.625C384.674 181.625 387.764 178.718 387.764 175.125L387.813 172.059L392.323 171.05C393.324 170.828 393.324 169.679 392.323 169.45L381.883 167.114C381.17 166.962 380.423 166.962 379.71 167.114L369.258 169.45C368.265 169.673 368.265 170.828 369.259 171.05ZM386.453 182.884L380.794 188.125L375.135 182.884C371.301 184.017 368.511 187.312 368.511 191.238C368.511 192.213 369.363 193 370.412 193H391.178C392.227 193 393.077 192.213 393.077 191.238C393.077 187.312 390.286 184.017 386.453 182.884Z" fill="white"/>
<rect x="0.876953" width="469.123" height="299" fill="black"/>
<rect x="3.59387" y="2" width="463.689" height="294" fill="white"/>
<path d="M51.6692 131.119C51.084 131.119 50.5669 131.016 50.1181 130.808C49.672 130.598 49.324 130.31 49.074 129.943C48.824 129.574 48.7005 129.153 48.7033 128.682C48.7005 128.312 48.7729 127.972 48.9206 127.659C49.0683 127.344 49.2701 127.081 49.5257 126.871C49.7843 126.658 50.0726 126.523 50.3908 126.466V126.415C49.9732 126.307 49.6408 126.072 49.3936 125.712C49.1465 125.348 49.0243 124.935 49.0272 124.472C49.0243 124.028 49.1365 123.632 49.3638 123.283C49.5911 122.933 49.9036 122.658 50.3013 122.456C50.7019 122.254 51.1578 122.153 51.6692 122.153C52.1749 122.153 52.6266 122.254 53.0243 122.456C53.422 122.658 53.7345 122.933 53.9618 123.283C54.1919 123.632 54.3084 124.028 54.3112 124.472C54.3084 124.935 54.182 125.348 53.932 125.712C53.6848 126.072 53.3567 126.307 52.9476 126.415V126.466C53.263 126.523 53.547 126.658 53.7999 126.871C54.0527 127.081 54.2544 127.344 54.405 127.659C54.5556 127.972 54.6323 128.312 54.6351 128.682C54.6323 129.153 54.5044 129.574 54.2516 129.943C54.0016 130.31 53.6536 130.598 53.2076 130.808C52.7644 131.016 52.2516 131.119 51.6692 131.119ZM51.6692 130.182C52.0641 130.182 52.405 130.118 52.6919 129.99C52.9789 129.862 53.2005 129.682 53.3567 129.449C53.513 129.216 53.5925 128.943 53.5953 128.631C53.5925 128.301 53.5073 128.01 53.3397 127.757C53.172 127.504 52.9433 127.305 52.6536 127.161C52.3666 127.016 52.0385 126.943 51.6692 126.943C51.297 126.943 50.9647 127.016 50.672 127.161C50.3823 127.305 50.1536 127.504 49.986 127.757C49.8212 128.01 49.7402 128.301 49.7431 128.631C49.7402 128.943 49.8155 129.216 49.9689 129.449C50.1252 129.682 50.3482 129.862 50.638 129.99C50.9277 130.118 51.2715 130.182 51.6692 130.182ZM51.6692 126.04C51.9817 126.04 52.2587 125.977 52.5002 125.852C52.7445 125.727 52.9362 125.553 53.0755 125.328C53.2147 125.104 53.2857 124.841 53.2885 124.54C53.2857 124.244 53.2161 123.987 53.0797 123.768C52.9433 123.547 52.7544 123.376 52.513 123.257C52.2715 123.135 51.9902 123.074 51.6692 123.074C51.3425 123.074 51.057 123.135 50.8127 123.257C50.5683 123.376 50.3794 123.547 50.2459 123.768C50.1124 123.987 50.047 124.244 50.0499 124.54C50.047 124.841 50.1138 125.104 50.2502 125.328C50.3894 125.553 50.5811 125.727 50.8255 125.852C51.0698 125.977 51.351 126.04 51.6692 126.04ZM59.1149 131.119C58.4728 131.119 57.9259 130.945 57.4742 130.595C57.0225 130.243 56.6774 129.733 56.4387 129.065C56.2001 128.395 56.0808 127.585 56.0808 126.636C56.0808 125.693 56.2001 124.888 56.4387 124.22C56.6802 123.55 57.0268 123.038 57.4785 122.686C57.9331 122.331 58.4785 122.153 59.1149 122.153C59.7512 122.153 60.2953 122.331 60.747 122.686C61.2015 123.038 61.5481 123.55 61.7867 124.22C62.0282 124.888 62.149 125.693 62.149 126.636C62.149 127.585 62.0296 128.395 61.791 129.065C61.5524 129.733 61.2072 130.243 60.7555 130.595C60.3038 130.945 59.7569 131.119 59.1149 131.119ZM59.1149 130.182C59.7512 130.182 60.2456 129.875 60.5978 129.261C60.9501 128.648 61.1262 127.773 61.1262 126.636C61.1262 125.881 61.0453 125.237 60.8833 124.706C60.7242 124.175 60.4941 123.77 60.193 123.491C59.8947 123.213 59.5353 123.074 59.1149 123.074C58.4842 123.074 57.9913 123.385 57.6362 124.007C57.2811 124.626 57.1035 125.503 57.1035 126.636C57.1035 127.392 57.1831 128.034 57.3421 128.562C57.5012 129.091 57.7299 129.493 58.0282 129.768C58.3294 130.044 58.6916 130.182 59.1149 130.182Z" fill="black"/>
<path d="M51.7715 162.119C51.4135 162.114 51.0556 162.045 50.6976 161.915C50.3397 161.784 50.013 161.564 49.7175 161.254C49.422 160.942 49.1848 160.52 49.0058 159.989C48.8269 159.455 48.7374 158.784 48.7374 157.977C48.7374 157.205 48.8098 156.52 48.9547 155.923C49.0996 155.324 49.3098 154.82 49.5854 154.411C49.861 153.999 50.1933 153.686 50.5826 153.473C50.9746 153.26 51.4164 153.153 51.9078 153.153C52.3965 153.153 52.8311 153.251 53.2118 153.447C53.5953 153.641 53.9078 153.911 54.1493 154.257C54.3908 154.604 54.547 155.003 54.6181 155.455H53.5783C53.4817 155.062 53.2942 154.737 53.0158 154.479C52.7374 154.22 52.3681 154.091 51.9078 154.091C51.2317 154.091 50.699 154.385 50.3098 154.973C49.9235 155.561 49.7289 156.386 49.726 157.449H49.7942C49.9533 157.207 50.1422 157.001 50.361 156.831C50.5826 156.658 50.8269 156.524 51.0939 156.43C51.361 156.337 51.6436 156.29 51.9419 156.29C52.4419 156.29 52.8993 156.415 53.3141 156.665C53.7289 156.912 54.0612 157.254 54.3112 157.692C54.5612 158.126 54.6862 158.625 54.6862 159.188C54.6862 159.727 54.5655 160.222 54.324 160.67C54.0826 161.116 53.7431 161.472 53.3056 161.736C52.8709 161.997 52.3595 162.125 51.7715 162.119ZM51.7715 161.182C52.1294 161.182 52.4505 161.092 52.7345 160.913C53.0215 160.734 53.2473 160.494 53.4121 160.193C53.5797 159.892 53.6635 159.557 53.6635 159.188C53.6635 158.827 53.5826 158.499 53.4206 158.203C53.2615 157.905 53.0414 157.668 52.7601 157.491C52.4817 157.315 52.1635 157.227 51.8056 157.227C51.5357 157.227 51.2843 157.281 51.0513 157.389C50.8183 157.494 50.6138 157.639 50.4377 157.824C50.2644 158.009 50.128 158.22 50.0286 158.459C49.9291 158.695 49.8794 158.943 49.8794 159.205C49.8794 159.551 49.9604 159.875 50.1223 160.176C50.2871 160.477 50.5115 160.72 50.7956 160.905C51.0826 161.089 51.4078 161.182 51.7715 161.182ZM59.2086 162.119C58.5666 162.119 58.0197 161.945 57.568 161.595C57.1163 161.243 56.7711 160.733 56.5325 160.065C56.2938 159.395 56.1745 158.585 56.1745 157.636C56.1745 156.693 56.2938 155.888 56.5325 155.22C56.774 154.55 57.1206 154.038 57.5723 153.686C58.0268 153.331 58.5723 153.153 59.2086 153.153C59.845 153.153 60.389 153.331 60.8407 153.686C61.2953 154.038 61.6419 154.55 61.8805 155.22C62.122 155.888 62.2427 156.693 62.2427 157.636C62.2427 158.585 62.1234 159.395 61.8848 160.065C61.6461 160.733 61.3009 161.243 60.8492 161.595C60.3975 161.945 59.8507 162.119 59.2086 162.119ZM59.2086 161.182C59.845 161.182 60.3393 160.875 60.6916 160.261C61.0438 159.648 61.22 158.773 61.22 157.636C61.22 156.881 61.139 156.237 60.9771 155.706C60.818 155.175 60.5879 154.77 60.2867 154.491C59.9884 154.213 59.6291 154.074 59.2086 154.074C58.5779 154.074 58.085 154.385 57.7299 155.007C57.3748 155.626 57.1973 156.503 57.1973 157.636C57.1973 158.392 57.2768 159.034 57.4359 159.562C57.595 160.091 57.8237 160.493 58.122 160.768C58.4231 161.044 58.7853 161.182 59.2086 161.182Z" fill="black"/>
<line y1="-0.5" x2="349.602" y2="-0.5" transform="matrix(0.999997 -0.00249937 0.00182673 0.999998 77.8192 260.553)" stroke="black"/>
<line y1="-0.5" x2="349.602" y2="-0.5" transform="matrix(0.999997 -0.00249937 0.00182673 0.999998 77.8192 224.728)" stroke="#C4C4C4"/>
<line y1="-0.5" x2="349.602" y2="-0.5" transform="matrix(0.999997 -0.00249937 0.00182673 0.999998 77.8192 188.903)" stroke="#C4C4C4"/>
<line y1="-0.5" x2="349.602" y2="-0.5" transform="matrix(0.999997 -0.00249937 0.00182673 0.999998 77.8192 153.078)" stroke="#C4C4C4"/>
<line y1="-0.5" x2="349.602" y2="-0.5" transform="matrix(0.999997 -0.00249937 0.00182673 0.999998 77.8192 117.252)" stroke="#C4C4C4"/>
<line y1="-0.5" x2="349.602" y2="-0.5" transform="matrix(0.999997 -0.00249937 0.00182673 0.999998 77.8192 81.4272)" stroke="#C4C4C4"/>
<line y1="-0.5" x2="349.602" y2="-0.5" transform="matrix(0.999997 -0.00249937 0.00182673 0.999998 77.8192 45.6019)" stroke="#C4C4C4"/>
<rect x="118.61" y="135" width="21.7354" height="125" fill="#F3C7C7"/>
<rect x="81.4791" y="64" width="22.6411" height="195" fill="#F3C7C7"/>
<rect x="153.025" y="180" width="22.6411" height="80" fill="#F3C7C7"/>
<rect x="186.534" y="165" width="22.6411" height="95" fill="#F3C7C7"/>
<rect x="219.137" y="52" width="22.6411" height="209" fill="#F3C7C7"/>
<rect x="251.74" y="235" width="22.6411" height="26" fill="#F3C7C7"/>
<rect x="284.343" y="212" width="22.6411" height="48" fill="#F3C7C7"/>
<rect x="317.852" y="98" width="22.6411" height="162" fill="#F3C7C7"/>
<rect x="350.455" y="235" width="22.6411" height="25" fill="#F3C7C7"/>
<rect x="383.058" y="201" width="22.6411" height="60" fill="#F3C7C7"/>
<path d="M50.1306 42.2727V51H49.0738V43.3807H49.0227L46.892 44.7955V43.7216L49.0738 42.2727H50.1306ZM52.6406 51V50.233L55.5213 47.0795C55.8593 46.7102 56.1378 46.3892 56.3565 46.1165C56.5753 45.8409 56.7372 45.5824 56.8423 45.3409C56.9503 45.0966 57.0042 44.8409 57.0042 44.5739C57.0042 44.267 56.9304 44.0014 56.7826 43.777C56.6378 43.5526 56.4389 43.3793 56.186 43.2571C55.9332 43.1349 55.6491 43.0739 55.3338 43.0739C54.9985 43.0739 54.7059 43.1435 54.4559 43.2827C54.2088 43.419 54.017 43.6108 53.8806 43.858C53.7471 44.1051 53.6804 44.3949 53.6804 44.7273H52.6747C52.6747 44.2159 52.7926 43.767 53.0284 43.3807C53.2642 42.9943 53.5852 42.6932 53.9914 42.4773C54.4005 42.2614 54.8593 42.1534 55.3679 42.1534C55.8792 42.1534 56.3324 42.2614 56.7272 42.4773C57.1221 42.6932 57.4318 42.9844 57.6562 43.3509C57.8806 43.7173 57.9929 44.125 57.9929 44.5739C57.9929 44.8949 57.9346 45.2088 57.8181 45.5156C57.7045 45.8196 57.5056 46.1591 57.2216 46.5341C56.9403 46.9062 56.5497 47.3608 56.0497 47.8977L54.0895 49.9943V50.0625H58.1463V51H52.6406ZM62.7528 51.1193C62.1108 51.1193 61.5639 50.9446 61.1122 50.5952C60.6605 50.2429 60.3153 49.733 60.0767 49.0653C59.838 48.3949 59.7187 47.5852 59.7187 46.6364C59.7187 45.6932 59.838 44.8878 60.0767 44.2202C60.3181 43.5497 60.6647 43.0384 61.1164 42.6861C61.571 42.331 62.1164 42.1534 62.7528 42.1534C63.3892 42.1534 63.9332 42.331 64.3849 42.6861C64.8395 43.0384 65.186 43.5497 65.4247 44.2202C65.6662 44.8878 65.7869 45.6932 65.7869 46.6364C65.7869 47.5852 65.6676 48.3949 65.4289 49.0653C65.1903 49.733 64.8451 50.2429 64.3934 50.5952C63.9417 50.9446 63.3949 51.1193 62.7528 51.1193ZM62.7528 50.1818C63.3892 50.1818 63.8835 49.875 64.2358 49.2614C64.588 48.6477 64.7642 47.7727 64.7642 46.6364C64.7642 45.8807 64.6832 45.2372 64.5213 44.706C64.3622 44.1747 64.1321 43.7699 63.8309 43.4915C63.5326 43.2131 63.1733 43.0739 62.7528 43.0739C62.1221 43.0739 61.6292 43.3849 61.2741 44.0071C60.919 44.6264 60.7414 45.5028 60.7414 46.6364C60.7414 47.392 60.821 48.0341 60.9801 48.5625C61.1392 49.0909 61.3679 49.4929 61.6662 49.7685C61.9673 50.044 62.3295 50.1818 62.7528 50.1818Z" fill="black"/>
<path d="M50.1306 80.2727V89H49.0738V81.3807H49.0227L46.892 82.7955V81.7216L49.0738 80.2727H50.1306ZM55.4872 89.1193C54.8451 89.1193 54.2983 88.9446 53.8466 88.5952C53.3949 88.2429 53.0497 87.733 52.811 87.0653C52.5724 86.3949 52.4531 85.5852 52.4531 84.6364C52.4531 83.6932 52.5724 82.8878 52.811 82.2202C53.0525 81.5497 53.3991 81.0384 53.8508 80.6861C54.3054 80.331 54.8508 80.1534 55.4872 80.1534C56.1235 80.1534 56.6676 80.331 57.1193 80.6861C57.5738 81.0384 57.9204 81.5497 58.1591 82.2202C58.4005 82.8878 58.5213 83.6932 58.5213 84.6364C58.5213 85.5852 58.402 86.3949 58.1633 87.0653C57.9247 87.733 57.5795 88.2429 57.1278 88.5952C56.6761 88.9446 56.1292 89.1193 55.4872 89.1193ZM55.4872 88.1818C56.1235 88.1818 56.6179 87.875 56.9701 87.2614C57.3224 86.6477 57.4985 85.7727 57.4985 84.6364C57.4985 83.8807 57.4176 83.2372 57.2556 82.706C57.0966 82.1747 56.8664 81.7699 56.5653 81.4915C56.267 81.2131 55.9076 81.0739 55.4872 81.0739C54.8565 81.0739 54.3636 81.3849 54.0085 82.0071C53.6534 82.6264 53.4758 83.5028 53.4758 84.6364C53.4758 85.392 53.5554 86.0341 53.7145 86.5625C53.8735 87.0909 54.1022 87.4929 54.4005 87.7685C54.7017 88.044 55.0639 88.1818 55.4872 88.1818ZM62.9872 89.1193C62.3451 89.1193 61.7983 88.9446 61.3466 88.5952C60.8949 88.2429 60.5497 87.733 60.311 87.0653C60.0724 86.3949 59.9531 85.5852 59.9531 84.6364C59.9531 83.6932 60.0724 82.8878 60.311 82.2202C60.5525 81.5497 60.8991 81.0384 61.3508 80.6861C61.8054 80.331 62.3508 80.1534 62.9872 80.1534C63.6235 80.1534 64.1676 80.331 64.6193 80.6861C65.0738 81.0384 65.4204 81.5497 65.6591 82.2202C65.9005 82.8878 66.0213 83.6932 66.0213 84.6364C66.0213 85.5852 65.902 86.3949 65.6633 87.0653C65.4247 87.733 65.0795 88.2429 64.6278 88.5952C64.1761 88.9446 63.6292 89.1193 62.9872 89.1193ZM62.9872 88.1818C63.6235 88.1818 64.1179 87.875 64.4701 87.2614C64.8224 86.6477 64.9985 85.7727 64.9985 84.6364C64.9985 83.8807 64.9176 83.2372 64.7556 82.706C64.5966 82.1747 64.3664 81.7699 64.0653 81.4915C63.767 81.2131 63.4076 81.0739 62.9872 81.0739C62.3565 81.0739 61.8636 81.3849 61.5085 82.0071C61.1534 82.6264 60.9758 83.5028 60.9758 84.6364C60.9758 85.392 61.0554 86.0341 61.2145 86.5625C61.3735 87.0909 61.6022 87.4929 61.9005 87.7685C62.2017 88.044 62.5639 88.1818 62.9872 88.1818Z" fill="black"/>
<path d="M48.8737 237V236.233L51.7544 233.08C52.0925 232.71 52.3709 232.389 52.5897 232.116C52.8084 231.841 52.9703 231.582 53.0755 231.341C53.1834 231.097 53.2374 230.841 53.2374 230.574C53.2374 230.267 53.1635 230.001 53.0158 229.777C52.8709 229.553 52.672 229.379 52.4192 229.257C52.1664 229.135 51.8823 229.074 51.5669 229.074C51.2317 229.074 50.9391 229.143 50.6891 229.283C50.4419 229.419 50.2502 229.611 50.1138 229.858C49.9803 230.105 49.9135 230.395 49.9135 230.727H48.9078C48.9078 230.216 49.0257 229.767 49.2615 229.381C49.4973 228.994 49.8183 228.693 50.2246 228.477C50.6337 228.261 51.0925 228.153 51.601 228.153C52.1124 228.153 52.5655 228.261 52.9604 228.477C53.3553 228.693 53.6649 228.984 53.8894 229.351C54.1138 229.717 54.226 230.125 54.226 230.574C54.226 230.895 54.1678 231.209 54.0513 231.516C53.9377 231.82 53.7388 232.159 53.4547 232.534C53.1735 232.906 52.7828 233.361 52.2828 233.898L50.3226 235.994V236.062H54.3794V237H48.8737ZM58.986 237.119C58.3439 237.119 57.797 236.945 57.3453 236.595C56.8936 236.243 56.5485 235.733 56.3098 235.065C56.0712 234.395 55.9519 233.585 55.9519 232.636C55.9519 231.693 56.0712 230.888 56.3098 230.22C56.5513 229.55 56.8979 229.038 57.3496 228.686C57.8041 228.331 58.3496 228.153 58.986 228.153C59.6223 228.153 60.1664 228.331 60.6181 228.686C61.0726 229.038 61.4192 229.55 61.6578 230.22C61.8993 230.888 62.0201 231.693 62.0201 232.636C62.0201 233.585 61.9007 234.395 61.6621 235.065C61.4235 235.733 61.0783 236.243 60.6266 236.595C60.1749 236.945 59.628 237.119 58.986 237.119ZM58.986 236.182C59.6223 236.182 60.1166 235.875 60.4689 235.261C60.8212 234.648 60.9973 233.773 60.9973 232.636C60.9973 231.881 60.9164 231.237 60.7544 230.706C60.5953 230.175 60.3652 229.77 60.0641 229.491C59.7658 229.213 59.4064 229.074 58.986 229.074C58.3553 229.074 57.8624 229.385 57.5073 230.007C57.1522 230.626 56.9746 231.503 56.9746 232.636C56.9746 233.392 57.0541 234.034 57.2132 234.562C57.3723 235.091 57.601 235.493 57.8993 235.768C58.2005 236.044 58.5627 236.182 58.986 236.182Z" fill="black"/>
</svg>
