<svg width="49" height="35" viewBox="0 0 49 35" fill="none" xmlns="http://www.w3.org/2000/svg">
<g clip-path="url(#clip0_57_242)">
<path d="M15.7683 24.0625C15.5871 24.0625 15.406 24.0864 15.2331 24.137C14.2506 24.4248 13.2173 24.6094 12.1295 24.6094C11.0416 24.6094 10.0083 24.4248 9.02509 24.137C8.85225 24.0864 8.67182 24.0625 8.49064 24.0625C3.78591 24.0625 -0.0250167 27.5133 3.97922e-07 31.7611C0.0106137 33.5563 1.64734 35 3.63884 35H20.6201C22.6116 35 24.2483 33.5563 24.259 31.7611C24.284 27.5133 20.473 24.0625 15.7683 24.0625ZM12.1295 21.875C16.1489 21.875 19.4072 18.9369 19.4072 15.3125C19.4072 11.6881 16.1489 8.75 12.1295 8.75C8.11007 8.75 4.85179 11.6881 4.85179 15.3125C4.85179 18.9369 8.11007 21.875 12.1295 21.875ZM44.8791 0H15.7683C13.7617 0 12.1295 1.521 12.1295 3.38994V6.5625C13.9049 6.5625 15.5485 7.02598 16.9813 7.7793V4.375H43.6661V24.0625H38.8143V19.6875H29.1108V24.0625H23.3311C24.779 25.2034 25.8419 26.7101 26.3399 28.4375H44.8791C46.8857 28.4375 48.5179 26.9165 48.5179 25.0476V3.38994C48.5179 1.521 46.8857 0 44.8791 0Z" fill="white"/>
</g>
<defs>
<clipPath id="clip0_57_242">
<rect width="48.5179" height="35" fill="white"/>
</clipPath>
</defs>
</svg>
