<svg width="16" height="16" viewBox="0 0 16 16" fill="none" xmlns="http://www.w3.org/2000/svg">
<path fill-rule="evenodd" clip-rule="evenodd" d="M9.11101 4.66301C8.89275 4.81433 8.64654 4.92067 8.38675 4.97582C8.12695 5.03097 7.85878 5.03382 7.59787 4.98421C7.33696 4.9346 7.08854 4.83352 6.86712 4.68688C6.64569 4.54023 6.45569 4.35095 6.3082 4.13008C6.16071 3.90922 6.05869 3.66119 6.00809 3.40047C5.95749 3.13975 5.95932 2.87156 6.01348 2.61156C6.06764 2.35156 6.17304 2.10494 6.32354 1.88611C6.47403 1.66728 6.6666 1.48062 6.89001 1.33701C7.33109 1.04567 7.86958 0.9408 8.38776 1.04533C8.90594 1.14985 9.36166 1.45527 9.65531 1.89482C9.94896 2.33437 10.0567 2.8723 9.95485 3.39102C9.85304 3.90974 9.55002 4.36706 9.11201 4.66301H9.11101ZM8.55601 2.16901C8.44711 2.09067 8.32355 2.03504 8.1927 2.00543C8.06185 1.97583 7.92639 1.97285 7.79436 1.99669C7.66234 2.02052 7.53647 2.07068 7.42423 2.14417C7.31199 2.21766 7.21569 2.31298 7.14106 2.42446C7.06643 2.53594 7.01499 2.6613 6.98981 2.79307C6.96462 2.92484 6.96621 3.06034 6.99448 3.19148C7.02275 3.32262 7.07711 3.44674 7.15434 3.55644C7.23157 3.66614 7.33008 3.75917 7.44401 3.83001C7.66412 3.96372 7.92734 4.00736 8.17882 3.95182C8.43031 3.89629 8.65067 3.74586 8.79401 3.53189C8.93734 3.31792 8.9926 3.0569 8.94826 2.8032C8.90393 2.5495 8.76342 2.32269 8.55601 2.17001V2.16901ZM11.166 2.19901C11.4544 2.00501 11.8015 1.91765 12.1473 1.95196C12.4932 1.98628 12.8163 2.14013 13.061 2.38701C13.2354 2.56276 13.3639 2.7786 13.4354 3.01561C13.5069 3.25262 13.5192 3.50355 13.4711 3.7464C13.423 3.98924 13.3161 4.21658 13.1597 4.40847C13.0033 4.60036 12.8022 4.75095 12.574 4.84701C12.3 4.96158 11.998 4.99176 11.7067 4.93368C11.4155 4.87561 11.1481 4.73192 10.939 4.52101C10.7818 4.36303 10.6615 4.17225 10.5867 3.96234C10.5119 3.75243 10.4843 3.52857 10.5061 3.30679C10.5279 3.085 10.5985 2.87078 10.7127 2.67944C10.827 2.4881 10.9821 2.32439 11.167 2.20001L11.166 2.19901ZM11.646 3.80901C11.7399 3.9025 11.8671 3.95486 11.9996 3.95458C12.0652 3.95444 12.1301 3.94138 12.1907 3.91615C12.2512 3.89091 12.3062 3.854 12.3525 3.80751C12.3988 3.76102 12.4355 3.70587 12.4605 3.64521C12.4854 3.58454 12.4982 3.51955 12.4981 3.45395C12.4979 3.38835 12.4849 3.32341 12.4596 3.26285C12.4344 3.2023 12.3975 3.1473 12.351 3.10101C12.2579 3.00737 12.132 2.95359 12 2.95101C11.9341 2.95088 11.8687 2.96382 11.8078 2.98908C11.7469 3.01435 11.6916 3.05145 11.6451 3.09822C11.5986 3.14499 11.5618 3.20052 11.5369 3.26159C11.512 3.32266 11.4995 3.38806 11.5 3.45401C11.5003 3.58719 11.5527 3.71496 11.646 3.81001V3.80901ZM3.19001 12.487H5.00001V13.492H3.19001C2.87315 13.4891 2.57036 13.3608 2.34801 13.135C2.1248 12.9084 1.99979 12.6031 2.00001 12.285V10.475C1.86537 10.4705 1.73305 10.4388 1.61102 10.3817C1.48899 10.3246 1.37979 10.2434 1.29001 10.143C1.19461 10.0464 1.11975 9.93145 1.06991 9.80514C1.02007 9.67883 0.996297 9.54375 1.00001 9.40801V7.22601C1.00301 6.75401 1.19001 6.30301 1.52001 5.96801C1.84901 5.63701 2.29401 5.44801 2.76001 5.44501H4.60001C4.35182 5.74058 4.16487 6.08254 4.05001 6.45101H2.76001C2.55705 6.45683 2.36394 6.53979 2.22001 6.68301C2.07863 6.82837 1.99968 7.02324 2.00001 7.22601V9.45801H3.00001V12.284C2.99769 12.3113 3.00093 12.3387 3.00952 12.3646C3.01812 12.3906 3.03189 12.4145 3.05001 12.435C3.09021 12.4661 3.13923 12.4836 3.19001 12.485V12.487ZM10.49 5.96901C10.3264 5.80379 10.1317 5.67253 9.9172 5.58278C9.70268 5.49303 9.47255 5.44655 9.24001 5.44601H6.76001C6.29383 5.44974 5.84805 5.63775 5.52001 5.96901C5.19001 6.30401 5.00301 6.75501 5.00001 7.22701V10.405C4.9986 10.6779 5.10247 10.9408 5.29001 11.139C5.3799 11.2393 5.48912 11.3204 5.61113 11.3775C5.73313 11.4345 5.86541 11.4663 6.00001 11.471V13.794C5.99907 13.9526 6.02952 14.1097 6.08959 14.2565C6.14965 14.4032 6.23816 14.5366 6.35001 14.649C6.53001 14.817 6.75701 14.926 7.00001 14.961H9.00001C9.28128 14.9241 9.53898 14.7845 9.72357 14.5691C9.90816 14.3537 10.0066 14.0776 10 13.794V11.47C10.1346 11.4655 10.267 11.4338 10.389 11.3767C10.511 11.3196 10.6202 11.2384 10.71 11.138C10.8053 11.0415 10.8802 10.9268 10.93 10.8006C10.9798 10.6745 11.0036 10.5396 11 10.404V7.22601C11.0007 6.75619 10.8177 6.30472 10.49 5.96801V5.96901ZM10 10.454H9.00001V13.794C8.99904 13.8467 8.97751 13.897 8.94001 13.934C8.92295 13.9542 8.90141 13.9702 8.87711 13.9806C8.8528 13.991 8.82641 13.9956 8.80001 13.994H7.19001C7.13775 13.9916 7.08828 13.9697 7.05129 13.9327C7.0143 13.8957 6.99244 13.8463 6.99001 13.794V10.454H6.00001V7.22601C6.00001 7.02301 6.07901 6.82801 6.22001 6.68301C6.36394 6.53979 6.55705 6.45683 6.76001 6.45101H9.24001C9.3915 6.45368 9.53891 6.50053 9.66415 6.5858C9.78938 6.67106 9.887 6.79105 9.94501 6.93101C9.98308 7.02462 10.0018 7.12497 10 7.22601V10.454V10.454ZM12.81 13.491H11V12.486H12.8C12.8508 12.4846 12.8998 12.4671 12.94 12.436C12.9601 12.4163 12.9759 12.3926 12.9862 12.3664C12.9966 12.3402 13.0013 12.3121 13 12.284V9.45801H14V7.22601C14.0003 7.02324 13.9214 6.82837 13.78 6.68301C13.6361 6.53979 13.443 6.45683 13.24 6.45101H11.95C11.8352 6.08252 11.6482 5.74055 11.4 5.44501H13.24C13.7061 5.44928 14.1517 5.63721 14.48 5.96801C14.81 6.30301 14.997 6.75401 15 7.22601V9.40801C15 9.68101 14.897 9.94301 14.711 10.141C14.525 10.34 14.271 10.459 14 10.474V12.284C14 12.603 13.875 12.908 13.652 13.134C13.4297 13.3598 13.1269 13.4881 12.81 13.491V13.491ZM4.00001 1.94501C3.70244 1.94467 3.41154 2.03319 3.16461 2.19924C2.91767 2.36529 2.72595 2.60129 2.61401 2.87701C2.50104 3.15263 2.47171 3.45541 2.52969 3.74758C2.58766 4.03976 2.73037 4.3084 2.94001 4.52001C3.14958 4.73137 3.41739 4.87547 3.70925 4.93388C4.0011 4.9923 4.30375 4.96239 4.57852 4.84797C4.8533 4.73356 5.08772 4.53983 5.25186 4.29153C5.416 4.04323 5.50239 3.75165 5.50001 3.45401C5.50001 3.05401 5.34201 2.67001 5.06001 2.38701C4.92115 2.24714 4.75602 2.13609 4.57411 2.06024C4.39221 1.98439 4.1971 1.94523 4.00001 1.94501V1.94501ZM4.00001 3.95701C3.93406 3.95714 3.86873 3.9442 3.80782 3.91894C3.7469 3.89367 3.69159 3.85658 3.64509 3.8098C3.5986 3.76303 3.56184 3.7075 3.53693 3.64643C3.51203 3.58536 3.49948 3.51996 3.50001 3.45401C3.50027 3.3212 3.55294 3.19387 3.64656 3.09968C3.74019 3.00549 3.86721 2.95206 4.00001 2.95101C4.13241 2.95334 4.25868 3.00718 4.35204 3.10109C4.44539 3.19501 4.49847 3.3216 4.50001 3.45401C4.49975 3.58682 4.44708 3.71415 4.35346 3.80834C4.25983 3.90253 4.13281 3.95596 4.00001 3.95701V3.95701Z" fill="black"/>
</svg>
