<svg width="295" height="295" viewBox="0 0 295 295" fill="none" xmlns="http://www.w3.org/2000/svg">
<path d="M147.5 0C169.038 -9.41478e-07 190.316 4.71703 209.836 13.8196C229.357 22.9222 246.647 36.1894 260.492 52.6888C274.336 69.1883 284.399 88.5196 289.974 109.324C295.549 130.129 296.499 151.902 292.759 173.113C289.019 194.324 280.679 214.459 268.325 232.103C255.971 249.746 239.903 264.469 221.25 275.239C202.597 286.008 181.812 292.562 160.355 294.439C138.899 296.316 117.292 293.471 97.052 286.105L147.5 147.5L147.5 0Z" fill="#0263FF"/>
<path d="M97.052 286.105C72.7218 277.249 51.1513 262.145 34.5084 242.311C17.8656 222.477 6.73689 198.611 2.24085 173.113C-2.25518 147.615 0.0398719 121.382 8.89534 97.052C17.7508 72.7218 32.8547 51.1513 52.6888 34.5084L147.5 147.5L97.052 286.105Z" fill="#FF7723"/>
<path d="M52.6888 34.5084C79.2535 12.2181 112.822 -4.13527e-07 147.5 0L147.5 147.5L52.6888 34.5084Z" fill="#8E30FF"/>
<path d="M189.986 121.279C189.986 121.025 189.947 120.798 189.869 120.596C189.798 120.387 189.661 120.199 189.459 120.029C189.257 119.854 188.974 119.681 188.609 119.512C188.245 119.342 187.773 119.167 187.193 118.984C186.549 118.776 185.937 118.542 185.357 118.281C184.785 118.021 184.277 117.718 183.834 117.373C183.398 117.021 183.053 116.615 182.799 116.152C182.551 115.69 182.428 115.153 182.428 114.541C182.428 113.949 182.558 113.411 182.818 112.93C183.079 112.441 183.443 112.025 183.912 111.68C184.381 111.328 184.934 111.058 185.572 110.869C186.217 110.68 186.923 110.586 187.691 110.586C188.74 110.586 189.654 110.775 190.436 111.152C191.217 111.53 191.822 112.048 192.252 112.705C192.688 113.363 192.906 114.115 192.906 114.961H189.996C189.996 114.544 189.908 114.18 189.732 113.867C189.563 113.548 189.303 113.298 188.951 113.115C188.606 112.933 188.17 112.842 187.643 112.842C187.135 112.842 186.712 112.92 186.373 113.076C186.035 113.226 185.781 113.431 185.611 113.691C185.442 113.945 185.357 114.232 185.357 114.551C185.357 114.792 185.416 115.01 185.533 115.205C185.657 115.4 185.839 115.583 186.08 115.752C186.321 115.921 186.617 116.081 186.969 116.23C187.32 116.38 187.727 116.527 188.189 116.67C188.964 116.904 189.645 117.168 190.23 117.461C190.823 117.754 191.318 118.083 191.715 118.447C192.112 118.812 192.411 119.225 192.613 119.688C192.815 120.15 192.916 120.674 192.916 121.26C192.916 121.878 192.796 122.432 192.555 122.92C192.314 123.408 191.965 123.822 191.51 124.16C191.054 124.499 190.51 124.756 189.879 124.932C189.247 125.107 188.541 125.195 187.76 125.195C187.057 125.195 186.363 125.104 185.68 124.922C184.996 124.733 184.374 124.45 183.814 124.072C183.261 123.695 182.818 123.213 182.486 122.627C182.154 122.041 181.988 121.348 181.988 120.547H184.928C184.928 120.99 184.996 121.364 185.133 121.67C185.27 121.976 185.462 122.223 185.709 122.412C185.963 122.601 186.262 122.738 186.607 122.822C186.959 122.907 187.343 122.949 187.76 122.949C188.268 122.949 188.684 122.878 189.01 122.734C189.342 122.591 189.586 122.393 189.742 122.139C189.905 121.885 189.986 121.598 189.986 121.279ZM199.908 114.434V116.426H193.756V114.434H199.908ZM195.279 111.826H198.092V121.816C198.092 122.122 198.131 122.357 198.209 122.52C198.294 122.682 198.417 122.796 198.58 122.861C198.743 122.92 198.948 122.949 199.195 122.949C199.371 122.949 199.527 122.943 199.664 122.93C199.807 122.91 199.928 122.891 200.025 122.871L200.035 124.941C199.794 125.02 199.534 125.081 199.254 125.127C198.974 125.173 198.665 125.195 198.326 125.195C197.708 125.195 197.167 125.094 196.705 124.893C196.249 124.684 195.898 124.352 195.65 123.896C195.403 123.441 195.279 122.842 195.279 122.1V111.826ZM207.76 122.471V114.434H210.572V125H207.926L207.76 122.471ZM208.072 120.303L208.902 120.283C208.902 120.986 208.821 121.641 208.658 122.246C208.495 122.845 208.251 123.366 207.926 123.809C207.6 124.245 207.19 124.587 206.695 124.834C206.201 125.075 205.618 125.195 204.947 125.195C204.433 125.195 203.958 125.124 203.521 124.98C203.092 124.831 202.721 124.6 202.408 124.287C202.102 123.968 201.861 123.561 201.686 123.066C201.516 122.565 201.432 121.963 201.432 121.26V114.434H204.244V121.279C204.244 121.592 204.28 121.855 204.352 122.07C204.43 122.285 204.537 122.461 204.674 122.598C204.811 122.734 204.97 122.832 205.152 122.891C205.341 122.949 205.549 122.979 205.777 122.979C206.357 122.979 206.812 122.861 207.145 122.627C207.483 122.393 207.721 122.074 207.857 121.67C208.001 121.26 208.072 120.804 208.072 120.303ZM218.961 122.695V110H221.793V125H219.244L218.961 122.695ZM212.281 119.844V119.639C212.281 118.831 212.372 118.099 212.555 117.441C212.737 116.777 213.004 116.208 213.355 115.732C213.707 115.257 214.14 114.889 214.654 114.629C215.169 114.368 215.755 114.238 216.412 114.238C217.031 114.238 217.571 114.368 218.033 114.629C218.502 114.889 218.899 115.26 219.225 115.742C219.557 116.217 219.824 116.781 220.025 117.432C220.227 118.076 220.374 118.783 220.465 119.551V120C220.374 120.736 220.227 121.419 220.025 122.051C219.824 122.682 219.557 123.236 219.225 123.711C218.899 124.18 218.502 124.544 218.033 124.805C217.564 125.065 217.018 125.195 216.393 125.195C215.735 125.195 215.149 125.062 214.635 124.795C214.127 124.528 213.697 124.154 213.346 123.672C213.001 123.19 212.737 122.624 212.555 121.973C212.372 121.322 212.281 120.612 212.281 119.844ZM215.094 119.639V119.844C215.094 120.28 215.126 120.687 215.191 121.064C215.263 121.442 215.377 121.777 215.533 122.07C215.696 122.357 215.904 122.581 216.158 122.744C216.419 122.9 216.734 122.979 217.105 122.979C217.587 122.979 217.984 122.871 218.297 122.656C218.609 122.435 218.847 122.132 219.01 121.748C219.179 121.364 219.277 120.921 219.303 120.42V119.141C219.283 118.73 219.225 118.363 219.127 118.037C219.036 117.705 218.899 117.422 218.717 117.188C218.541 116.953 218.32 116.771 218.053 116.641C217.792 116.51 217.483 116.445 217.125 116.445C216.76 116.445 216.448 116.53 216.188 116.699C215.927 116.862 215.715 117.087 215.553 117.373C215.396 117.66 215.279 117.998 215.201 118.389C215.13 118.773 215.094 119.189 215.094 119.639ZM228.854 125.195C228.033 125.195 227.298 125.065 226.646 124.805C225.995 124.538 225.442 124.17 224.986 123.701C224.537 123.232 224.192 122.689 223.951 122.07C223.71 121.445 223.59 120.781 223.59 120.078V119.688C223.59 118.887 223.704 118.154 223.932 117.49C224.16 116.826 224.485 116.25 224.908 115.762C225.338 115.273 225.859 114.899 226.471 114.639C227.083 114.372 227.773 114.238 228.541 114.238C229.29 114.238 229.954 114.362 230.533 114.609C231.113 114.857 231.598 115.208 231.988 115.664C232.385 116.12 232.685 116.667 232.887 117.305C233.089 117.936 233.189 118.639 233.189 119.414V120.586H224.791V118.711H230.426V118.496C230.426 118.105 230.354 117.757 230.211 117.451C230.074 117.139 229.866 116.891 229.586 116.709C229.306 116.527 228.948 116.436 228.512 116.436C228.141 116.436 227.822 116.517 227.555 116.68C227.288 116.842 227.07 117.07 226.9 117.363C226.738 117.656 226.614 118.001 226.529 118.398C226.451 118.789 226.412 119.219 226.412 119.688V120.078C226.412 120.501 226.471 120.892 226.588 121.25C226.712 121.608 226.884 121.917 227.105 122.178C227.333 122.438 227.607 122.64 227.926 122.783C228.251 122.926 228.619 122.998 229.029 122.998C229.537 122.998 230.009 122.9 230.445 122.705C230.888 122.503 231.269 122.201 231.588 121.797L232.955 123.281C232.734 123.6 232.431 123.906 232.047 124.199C231.669 124.492 231.214 124.733 230.68 124.922C230.146 125.104 229.537 125.195 228.854 125.195ZM237.545 116.689V125H234.732V114.434H237.369L237.545 116.689ZM237.135 119.346H236.373C236.373 118.564 236.474 117.861 236.676 117.236C236.878 116.605 237.161 116.068 237.525 115.625C237.89 115.176 238.323 114.834 238.824 114.6C239.332 114.359 239.898 114.238 240.523 114.238C241.018 114.238 241.471 114.31 241.881 114.453C242.291 114.596 242.643 114.824 242.936 115.137C243.235 115.449 243.463 115.863 243.619 116.377C243.782 116.891 243.863 117.52 243.863 118.262V125H241.031V118.252C241.031 117.783 240.966 117.419 240.836 117.158C240.706 116.898 240.514 116.715 240.26 116.611C240.012 116.501 239.706 116.445 239.342 116.445C238.964 116.445 238.635 116.52 238.355 116.67C238.082 116.82 237.854 117.028 237.672 117.295C237.496 117.555 237.363 117.861 237.271 118.213C237.18 118.564 237.135 118.942 237.135 119.346ZM251.178 114.434V116.426H245.025V114.434H251.178ZM246.549 111.826H249.361V121.816C249.361 122.122 249.4 122.357 249.479 122.52C249.563 122.682 249.687 122.796 249.85 122.861C250.012 122.92 250.217 122.949 250.465 122.949C250.641 122.949 250.797 122.943 250.934 122.93C251.077 122.91 251.197 122.891 251.295 122.871L251.305 124.941C251.064 125.02 250.803 125.081 250.523 125.127C250.243 125.173 249.934 125.195 249.596 125.195C248.977 125.195 248.437 125.094 247.975 124.893C247.519 124.684 247.167 124.352 246.92 123.896C246.673 123.441 246.549 122.842 246.549 122.1V111.826ZM185.953 142.932H182.33V140.646H185.953C186.513 140.646 186.969 140.555 187.32 140.373C187.672 140.184 187.929 139.924 188.092 139.592C188.255 139.26 188.336 138.885 188.336 138.469C188.336 138.046 188.255 137.652 188.092 137.287C187.929 136.923 187.672 136.63 187.32 136.408C186.969 136.187 186.513 136.076 185.953 136.076H183.346V148H180.416V133.781H185.953C187.066 133.781 188.02 133.983 188.814 134.387C189.615 134.784 190.227 135.334 190.65 136.037C191.074 136.74 191.285 137.544 191.285 138.449C191.285 139.367 191.074 140.161 190.65 140.832C190.227 141.503 189.615 142.02 188.814 142.385C188.02 142.749 187.066 142.932 185.953 142.932ZM195.943 139.738V148H193.131V137.434H195.777L195.943 139.738ZM199.127 137.365L199.078 139.973C198.941 139.953 198.775 139.937 198.58 139.924C198.391 139.904 198.219 139.895 198.062 139.895C197.665 139.895 197.32 139.947 197.027 140.051C196.741 140.148 196.5 140.295 196.305 140.49C196.116 140.686 195.973 140.923 195.875 141.203C195.784 141.483 195.732 141.802 195.719 142.16L195.152 141.984C195.152 141.301 195.221 140.673 195.357 140.1C195.494 139.52 195.693 139.016 195.953 138.586C196.22 138.156 196.546 137.824 196.93 137.59C197.314 137.355 197.753 137.238 198.248 137.238C198.404 137.238 198.564 137.251 198.727 137.277C198.889 137.297 199.023 137.326 199.127 137.365ZM199.713 142.824V142.619C199.713 141.844 199.824 141.132 200.045 140.48C200.266 139.823 200.589 139.253 201.012 138.771C201.435 138.29 201.956 137.915 202.574 137.648C203.193 137.375 203.902 137.238 204.703 137.238C205.504 137.238 206.217 137.375 206.842 137.648C207.467 137.915 207.991 138.29 208.414 138.771C208.844 139.253 209.169 139.823 209.391 140.48C209.612 141.132 209.723 141.844 209.723 142.619V142.824C209.723 143.592 209.612 144.305 209.391 144.963C209.169 145.614 208.844 146.184 208.414 146.672C207.991 147.154 207.47 147.528 206.852 147.795C206.233 148.062 205.523 148.195 204.723 148.195C203.922 148.195 203.209 148.062 202.584 147.795C201.965 147.528 201.441 147.154 201.012 146.672C200.589 146.184 200.266 145.614 200.045 144.963C199.824 144.305 199.713 143.592 199.713 142.824ZM202.525 142.619V142.824C202.525 143.267 202.564 143.68 202.643 144.064C202.721 144.449 202.844 144.787 203.014 145.08C203.189 145.367 203.417 145.591 203.697 145.754C203.977 145.917 204.319 145.998 204.723 145.998C205.113 145.998 205.449 145.917 205.729 145.754C206.008 145.591 206.233 145.367 206.402 145.08C206.572 144.787 206.695 144.449 206.773 144.064C206.858 143.68 206.9 143.267 206.9 142.824V142.619C206.9 142.189 206.858 141.786 206.773 141.408C206.695 141.024 206.568 140.686 206.393 140.393C206.223 140.093 205.999 139.859 205.719 139.689C205.439 139.52 205.1 139.436 204.703 139.436C204.306 139.436 203.967 139.52 203.688 139.689C203.414 139.859 203.189 140.093 203.014 140.393C202.844 140.686 202.721 141.024 202.643 141.408C202.564 141.786 202.525 142.189 202.525 142.619ZM211.607 137.434H214.43V148.635C214.43 149.416 214.286 150.077 214 150.617C213.714 151.158 213.3 151.568 212.76 151.848C212.219 152.128 211.565 152.268 210.797 152.268C210.556 152.268 210.322 152.255 210.094 152.229C209.859 152.202 209.618 152.16 209.371 152.102L209.381 149.943C209.537 149.969 209.69 149.989 209.84 150.002C209.983 150.021 210.13 150.031 210.279 150.031C210.572 150.031 210.816 149.982 211.012 149.885C211.207 149.787 211.354 149.634 211.451 149.426C211.555 149.224 211.607 148.96 211.607 148.635V137.434ZM211.383 134.68C211.383 134.27 211.526 133.931 211.812 133.664C212.105 133.397 212.49 133.264 212.965 133.264C213.447 133.264 213.831 133.397 214.117 133.664C214.404 133.931 214.547 134.27 214.547 134.68C214.547 135.09 214.404 135.428 214.117 135.695C213.831 135.962 213.447 136.096 212.965 136.096C212.49 136.096 212.105 135.962 211.812 135.695C211.526 135.428 211.383 135.09 211.383 134.68ZM221.529 148.195C220.709 148.195 219.973 148.065 219.322 147.805C218.671 147.538 218.118 147.17 217.662 146.701C217.213 146.232 216.868 145.689 216.627 145.07C216.386 144.445 216.266 143.781 216.266 143.078V142.688C216.266 141.887 216.38 141.154 216.607 140.49C216.835 139.826 217.161 139.25 217.584 138.762C218.014 138.273 218.535 137.899 219.146 137.639C219.758 137.372 220.449 137.238 221.217 137.238C221.965 137.238 222.63 137.362 223.209 137.609C223.788 137.857 224.273 138.208 224.664 138.664C225.061 139.12 225.361 139.667 225.562 140.305C225.764 140.936 225.865 141.639 225.865 142.414V143.586H217.467V141.711H223.102V141.496C223.102 141.105 223.03 140.757 222.887 140.451C222.75 140.139 222.542 139.891 222.262 139.709C221.982 139.527 221.624 139.436 221.188 139.436C220.816 139.436 220.497 139.517 220.23 139.68C219.964 139.842 219.745 140.07 219.576 140.363C219.413 140.656 219.29 141.001 219.205 141.398C219.127 141.789 219.088 142.219 219.088 142.688V143.078C219.088 143.501 219.146 143.892 219.264 144.25C219.387 144.608 219.56 144.917 219.781 145.178C220.009 145.438 220.283 145.64 220.602 145.783C220.927 145.926 221.295 145.998 221.705 145.998C222.213 145.998 222.685 145.9 223.121 145.705C223.564 145.503 223.945 145.201 224.264 144.797L225.631 146.281C225.41 146.6 225.107 146.906 224.723 147.199C224.345 147.492 223.889 147.733 223.355 147.922C222.822 148.104 222.213 148.195 221.529 148.195ZM231.832 145.998C232.177 145.998 232.483 145.933 232.75 145.803C233.017 145.666 233.225 145.477 233.375 145.236C233.531 144.989 233.613 144.699 233.619 144.367H236.266C236.259 145.109 236.061 145.77 235.67 146.35C235.279 146.923 234.755 147.375 234.098 147.707C233.44 148.033 232.704 148.195 231.891 148.195C231.07 148.195 230.354 148.059 229.742 147.785C229.137 147.512 228.632 147.134 228.229 146.652C227.825 146.164 227.522 145.598 227.32 144.953C227.118 144.302 227.018 143.605 227.018 142.863V142.58C227.018 141.831 227.118 141.135 227.32 140.49C227.522 139.839 227.825 139.273 228.229 138.791C228.632 138.303 229.137 137.922 229.742 137.648C230.348 137.375 231.057 137.238 231.871 137.238C232.737 137.238 233.495 137.404 234.146 137.736C234.804 138.068 235.318 138.544 235.689 139.162C236.067 139.774 236.259 140.5 236.266 141.34H233.619C233.613 140.988 233.538 140.669 233.395 140.383C233.258 140.096 233.056 139.868 232.789 139.699C232.529 139.523 232.206 139.436 231.822 139.436C231.412 139.436 231.077 139.523 230.816 139.699C230.556 139.868 230.354 140.103 230.211 140.402C230.068 140.695 229.967 141.031 229.908 141.408C229.856 141.779 229.83 142.17 229.83 142.58V142.863C229.83 143.273 229.856 143.667 229.908 144.045C229.96 144.423 230.058 144.758 230.201 145.051C230.351 145.344 230.556 145.575 230.816 145.744C231.077 145.913 231.415 145.998 231.832 145.998ZM243.072 137.434V139.426H236.92V137.434H243.072ZM238.443 134.826H241.256V144.816C241.256 145.122 241.295 145.357 241.373 145.52C241.458 145.682 241.581 145.796 241.744 145.861C241.907 145.92 242.112 145.949 242.359 145.949C242.535 145.949 242.691 145.943 242.828 145.93C242.971 145.91 243.092 145.891 243.189 145.871L243.199 147.941C242.958 148.02 242.698 148.081 242.418 148.127C242.138 148.173 241.829 148.195 241.49 148.195C240.872 148.195 240.331 148.094 239.869 147.893C239.413 147.684 239.062 147.352 238.814 146.896C238.567 146.441 238.443 145.842 238.443 145.1V134.826ZM250.387 145.08C250.387 144.878 250.328 144.696 250.211 144.533C250.094 144.37 249.876 144.221 249.557 144.084C249.244 143.941 248.792 143.811 248.199 143.693C247.665 143.576 247.167 143.43 246.705 143.254C246.249 143.072 245.852 142.854 245.514 142.6C245.182 142.346 244.921 142.046 244.732 141.701C244.544 141.35 244.449 140.949 244.449 140.5C244.449 140.057 244.544 139.641 244.732 139.25C244.928 138.859 245.204 138.514 245.562 138.215C245.927 137.909 246.37 137.671 246.891 137.502C247.418 137.326 248.01 137.238 248.668 137.238C249.586 137.238 250.374 137.385 251.031 137.678C251.695 137.971 252.203 138.374 252.555 138.889C252.913 139.396 253.092 139.976 253.092 140.627H250.279C250.279 140.354 250.221 140.109 250.104 139.895C249.993 139.673 249.817 139.501 249.576 139.377C249.342 139.247 249.036 139.182 248.658 139.182C248.346 139.182 248.076 139.237 247.848 139.348C247.62 139.452 247.444 139.595 247.32 139.777C247.203 139.953 247.145 140.148 247.145 140.363C247.145 140.526 247.177 140.673 247.242 140.803C247.314 140.926 247.428 141.04 247.584 141.145C247.74 141.249 247.942 141.346 248.189 141.438C248.443 141.522 248.756 141.6 249.127 141.672C249.889 141.828 250.569 142.033 251.168 142.287C251.767 142.535 252.242 142.873 252.594 143.303C252.945 143.726 253.121 144.283 253.121 144.973C253.121 145.441 253.017 145.871 252.809 146.262C252.6 146.652 252.301 146.994 251.91 147.287C251.52 147.574 251.051 147.798 250.504 147.961C249.964 148.117 249.355 148.195 248.678 148.195C247.695 148.195 246.861 148.02 246.178 147.668C245.501 147.316 244.986 146.87 244.635 146.33C244.29 145.783 244.117 145.223 244.117 144.65H246.783C246.796 145.035 246.894 145.344 247.076 145.578C247.265 145.812 247.503 145.982 247.789 146.086C248.082 146.19 248.398 146.242 248.736 146.242C249.101 146.242 249.404 146.193 249.645 146.096C249.885 145.992 250.068 145.855 250.191 145.686C250.322 145.51 250.387 145.308 250.387 145.08ZM214.381 187.525L212.135 186.988L212.945 179.781H220.934V182.057H215.26L214.908 185.211C215.097 185.1 215.383 184.983 215.768 184.859C216.152 184.729 216.581 184.664 217.057 184.664C217.747 184.664 218.359 184.771 218.893 184.986C219.426 185.201 219.879 185.514 220.25 185.924C220.628 186.334 220.914 186.835 221.109 187.428C221.305 188.02 221.402 188.691 221.402 189.439C221.402 190.071 221.305 190.673 221.109 191.246C220.914 191.812 220.618 192.32 220.221 192.77C219.824 193.212 219.326 193.561 218.727 193.814C218.128 194.068 217.418 194.195 216.598 194.195C215.986 194.195 215.393 194.104 214.82 193.922C214.254 193.74 213.743 193.469 213.287 193.111C212.838 192.753 212.477 192.32 212.203 191.812C211.936 191.298 211.796 190.712 211.783 190.055H214.576C214.615 190.458 214.719 190.807 214.889 191.1C215.064 191.386 215.296 191.607 215.582 191.764C215.868 191.92 216.204 191.998 216.588 191.998C216.946 191.998 217.252 191.93 217.506 191.793C217.76 191.656 217.965 191.467 218.121 191.227C218.277 190.979 218.391 190.693 218.463 190.367C218.541 190.035 218.58 189.677 218.58 189.293C218.58 188.909 218.535 188.561 218.443 188.248C218.352 187.936 218.212 187.665 218.023 187.438C217.835 187.21 217.594 187.034 217.301 186.91C217.014 186.786 216.679 186.725 216.295 186.725C215.774 186.725 215.37 186.806 215.084 186.969C214.804 187.132 214.57 187.317 214.381 187.525Z" fill="white"/>
<path d="M32.6367 116.781V131H29.707V116.781H32.6367ZM38.3008 122.855V125.141H31.8359V122.855H38.3008ZM38.9844 116.781V119.076H31.8359V116.781H38.9844ZM45.1562 131.195C44.3359 131.195 43.6003 131.065 42.9492 130.805C42.2982 130.538 41.7448 130.17 41.2891 129.701C40.8398 129.232 40.4948 128.689 40.2539 128.07C40.013 127.445 39.8926 126.781 39.8926 126.078V125.688C39.8926 124.887 40.0065 124.154 40.2344 123.49C40.4622 122.826 40.7878 122.25 41.2109 121.762C41.6406 121.273 42.1615 120.899 42.7734 120.639C43.3854 120.372 44.0755 120.238 44.8438 120.238C45.5924 120.238 46.2565 120.362 46.8359 120.609C47.4154 120.857 47.9004 121.208 48.291 121.664C48.6882 122.12 48.9876 122.667 49.1895 123.305C49.3913 123.936 49.4922 124.639 49.4922 125.414V126.586H41.0938V124.711H46.7285V124.496C46.7285 124.105 46.6569 123.757 46.5137 123.451C46.377 123.139 46.1686 122.891 45.8887 122.709C45.6087 122.527 45.2507 122.436 44.8145 122.436C44.4434 122.436 44.1243 122.517 43.8574 122.68C43.5905 122.842 43.3724 123.07 43.2031 123.363C43.0404 123.656 42.9167 124.001 42.832 124.398C42.7539 124.789 42.7148 125.219 42.7148 125.688V126.078C42.7148 126.501 42.7734 126.892 42.8906 127.25C43.0143 127.608 43.1868 127.917 43.4082 128.178C43.6361 128.438 43.9095 128.64 44.2285 128.783C44.554 128.926 44.9219 128.998 45.332 128.998C45.8398 128.998 46.3118 128.9 46.748 128.705C47.1908 128.503 47.5716 128.201 47.8906 127.797L49.2578 129.281C49.0365 129.6 48.7337 129.906 48.3496 130.199C47.972 130.492 47.5163 130.733 46.9824 130.922C46.4486 131.104 45.8398 131.195 45.1562 131.195ZM54.0625 116V131H51.2402V116H54.0625ZM59.3555 116V131H56.5332V116H59.3555ZM61.2305 125.824V125.619C61.2305 124.844 61.3411 124.132 61.5625 123.48C61.7839 122.823 62.1061 122.253 62.5293 121.771C62.9525 121.29 63.4733 120.915 64.0918 120.648C64.7103 120.375 65.4199 120.238 66.2207 120.238C67.0215 120.238 67.7344 120.375 68.3594 120.648C68.9844 120.915 69.5085 121.29 69.9316 121.771C70.3613 122.253 70.6868 122.823 70.9082 123.48C71.1296 124.132 71.2402 124.844 71.2402 125.619V125.824C71.2402 126.592 71.1296 127.305 70.9082 127.963C70.6868 128.614 70.3613 129.184 69.9316 129.672C69.5085 130.154 68.9876 130.528 68.3691 130.795C67.7507 131.062 67.041 131.195 66.2402 131.195C65.4395 131.195 64.7266 131.062 64.1016 130.795C63.4831 130.528 62.959 130.154 62.5293 129.672C62.1061 129.184 61.7839 128.614 61.5625 127.963C61.3411 127.305 61.2305 126.592 61.2305 125.824ZM64.043 125.619V125.824C64.043 126.267 64.082 126.68 64.1602 127.064C64.2383 127.449 64.362 127.787 64.5312 128.08C64.707 128.367 64.9349 128.591 65.2148 128.754C65.4948 128.917 65.8366 128.998 66.2402 128.998C66.6309 128.998 66.9661 128.917 67.2461 128.754C67.526 128.591 67.7507 128.367 67.9199 128.08C68.0892 127.787 68.2129 127.449 68.291 127.064C68.3757 126.68 68.418 126.267 68.418 125.824V125.619C68.418 125.189 68.3757 124.786 68.291 124.408C68.2129 124.024 68.0859 123.686 67.9102 123.393C67.7409 123.093 67.5163 122.859 67.2363 122.689C66.9564 122.52 66.6178 122.436 66.2207 122.436C65.8236 122.436 65.485 122.52 65.2051 122.689C64.9316 122.859 64.707 123.093 64.5312 123.393C64.362 123.686 64.2383 124.024 64.1602 124.408C64.082 124.786 64.043 125.189 64.043 125.619ZM75.9863 128.266L78.1836 120.434H79.9707L79.3945 123.51L77.1973 131H75.7031L75.9863 128.266ZM74.873 120.434L76.4453 128.256L76.5918 131H74.834L72.1582 120.434H74.873ZM81.9824 128.129L83.5156 120.434H86.2402L83.5645 131H81.8164L81.9824 128.129ZM80.2148 120.434L82.4023 128.207L82.7051 131H81.2012L79.0039 123.52L78.4473 120.434H80.2148ZM26.9531 148.932H23.3301V146.646H26.9531C27.513 146.646 27.9688 146.555 28.3203 146.373C28.6719 146.184 28.929 145.924 29.0918 145.592C29.2546 145.26 29.3359 144.885 29.3359 144.469C29.3359 144.046 29.2546 143.652 29.0918 143.287C28.929 142.923 28.6719 142.63 28.3203 142.408C27.9688 142.187 27.513 142.076 26.9531 142.076H24.3457V154H21.416V139.781H26.9531C28.0664 139.781 29.0202 139.983 29.8145 140.387C30.6152 140.784 31.2272 141.334 31.6504 142.037C32.0736 142.74 32.2852 143.544 32.2852 144.449C32.2852 145.367 32.0736 146.161 31.6504 146.832C31.2272 147.503 30.6152 148.02 29.8145 148.385C29.0202 148.749 28.0664 148.932 26.9531 148.932ZM36.9434 145.738V154H34.1309V143.434H36.7773L36.9434 145.738ZM40.127 143.365L40.0781 145.973C39.9414 145.953 39.7754 145.937 39.5801 145.924C39.3913 145.904 39.2188 145.895 39.0625 145.895C38.6654 145.895 38.3203 145.947 38.0273 146.051C37.7409 146.148 37.5 146.295 37.3047 146.49C37.1159 146.686 36.9727 146.923 36.875 147.203C36.7839 147.483 36.7318 147.802 36.7188 148.16L36.1523 147.984C36.1523 147.301 36.2207 146.673 36.3574 146.1C36.4941 145.52 36.6927 145.016 36.9531 144.586C37.2201 144.156 37.5456 143.824 37.9297 143.59C38.3138 143.355 38.7533 143.238 39.248 143.238C39.4043 143.238 39.5638 143.251 39.7266 143.277C39.8893 143.297 40.0228 143.326 40.127 143.365ZM40.7129 148.824V148.619C40.7129 147.844 40.8236 147.132 41.0449 146.48C41.2663 145.823 41.5885 145.253 42.0117 144.771C42.4349 144.29 42.9557 143.915 43.5742 143.648C44.1927 143.375 44.9023 143.238 45.7031 143.238C46.5039 143.238 47.2168 143.375 47.8418 143.648C48.4668 143.915 48.9909 144.29 49.4141 144.771C49.8438 145.253 50.1693 145.823 50.3906 146.48C50.612 147.132 50.7227 147.844 50.7227 148.619V148.824C50.7227 149.592 50.612 150.305 50.3906 150.963C50.1693 151.614 49.8438 152.184 49.4141 152.672C48.9909 153.154 48.4701 153.528 47.8516 153.795C47.2331 154.062 46.5234 154.195 45.7227 154.195C44.9219 154.195 44.209 154.062 43.584 153.795C42.9655 153.528 42.4414 153.154 42.0117 152.672C41.5885 152.184 41.2663 151.614 41.0449 150.963C40.8236 150.305 40.7129 149.592 40.7129 148.824ZM43.5254 148.619V148.824C43.5254 149.267 43.5645 149.68 43.6426 150.064C43.7207 150.449 43.8444 150.787 44.0137 151.08C44.1895 151.367 44.4173 151.591 44.6973 151.754C44.9772 151.917 45.319 151.998 45.7227 151.998C46.1133 151.998 46.4486 151.917 46.7285 151.754C47.0085 151.591 47.2331 151.367 47.4023 151.08C47.5716 150.787 47.6953 150.449 47.7734 150.064C47.8581 149.68 47.9004 149.267 47.9004 148.824V148.619C47.9004 148.189 47.8581 147.786 47.7734 147.408C47.6953 147.024 47.5684 146.686 47.3926 146.393C47.2233 146.093 46.9987 145.859 46.7188 145.689C46.4388 145.52 46.1003 145.436 45.7031 145.436C45.306 145.436 44.9674 145.52 44.6875 145.689C44.4141 145.859 44.1895 146.093 44.0137 146.393C43.8444 146.686 43.7207 147.024 43.6426 147.408C43.5645 147.786 43.5254 148.189 43.5254 148.619ZM52.6074 143.434H55.4297V154.635C55.4297 155.416 55.2865 156.077 55 156.617C54.7135 157.158 54.3001 157.568 53.7598 157.848C53.2194 158.128 52.5651 158.268 51.7969 158.268C51.556 158.268 51.3216 158.255 51.0938 158.229C50.8594 158.202 50.6185 158.16 50.3711 158.102L50.3809 155.943C50.5371 155.969 50.6901 155.989 50.8398 156.002C50.9831 156.021 51.1296 156.031 51.2793 156.031C51.5723 156.031 51.8164 155.982 52.0117 155.885C52.207 155.787 52.3535 155.634 52.4512 155.426C52.5553 155.224 52.6074 154.96 52.6074 154.635V143.434ZM52.3828 140.68C52.3828 140.27 52.526 139.931 52.8125 139.664C53.1055 139.397 53.4896 139.264 53.9648 139.264C54.4466 139.264 54.8307 139.397 55.1172 139.664C55.4036 139.931 55.5469 140.27 55.5469 140.68C55.5469 141.09 55.4036 141.428 55.1172 141.695C54.8307 141.962 54.4466 142.096 53.9648 142.096C53.4896 142.096 53.1055 141.962 52.8125 141.695C52.526 141.428 52.3828 141.09 52.3828 140.68ZM62.5293 154.195C61.709 154.195 60.9733 154.065 60.3223 153.805C59.6712 153.538 59.1178 153.17 58.6621 152.701C58.2129 152.232 57.8678 151.689 57.627 151.07C57.3861 150.445 57.2656 149.781 57.2656 149.078V148.688C57.2656 147.887 57.3796 147.154 57.6074 146.49C57.8353 145.826 58.1608 145.25 58.584 144.762C59.0137 144.273 59.5345 143.899 60.1465 143.639C60.7585 143.372 61.4486 143.238 62.2168 143.238C62.9655 143.238 63.6296 143.362 64.209 143.609C64.7884 143.857 65.2734 144.208 65.6641 144.664C66.0612 145.12 66.3607 145.667 66.5625 146.305C66.7643 146.936 66.8652 147.639 66.8652 148.414V149.586H58.4668V147.711H64.1016V147.496C64.1016 147.105 64.0299 146.757 63.8867 146.451C63.75 146.139 63.5417 145.891 63.2617 145.709C62.9818 145.527 62.6237 145.436 62.1875 145.436C61.8164 145.436 61.4974 145.517 61.2305 145.68C60.9635 145.842 60.7454 146.07 60.5762 146.363C60.4134 146.656 60.2897 147.001 60.2051 147.398C60.127 147.789 60.0879 148.219 60.0879 148.688V149.078C60.0879 149.501 60.1465 149.892 60.2637 150.25C60.3874 150.608 60.5599 150.917 60.7812 151.178C61.0091 151.438 61.2826 151.64 61.6016 151.783C61.9271 151.926 62.2949 151.998 62.7051 151.998C63.2129 151.998 63.6849 151.9 64.1211 151.705C64.5638 151.503 64.9447 151.201 65.2637 150.797L66.6309 152.281C66.4095 152.6 66.1068 152.906 65.7227 153.199C65.3451 153.492 64.8893 153.733 64.3555 153.922C63.8216 154.104 63.2129 154.195 62.5293 154.195ZM72.832 151.998C73.1771 151.998 73.4831 151.933 73.75 151.803C74.0169 151.666 74.2253 151.477 74.375 151.236C74.5312 150.989 74.6126 150.699 74.6191 150.367H77.2656C77.2591 151.109 77.0605 151.77 76.6699 152.35C76.2793 152.923 75.7552 153.375 75.0977 153.707C74.4401 154.033 73.7044 154.195 72.8906 154.195C72.0703 154.195 71.3542 154.059 70.7422 153.785C70.1367 153.512 69.6322 153.134 69.2285 152.652C68.8249 152.164 68.5221 151.598 68.3203 150.953C68.1185 150.302 68.0176 149.605 68.0176 148.863V148.58C68.0176 147.831 68.1185 147.135 68.3203 146.49C68.5221 145.839 68.8249 145.273 69.2285 144.791C69.6322 144.303 70.1367 143.922 70.7422 143.648C71.3477 143.375 72.0573 143.238 72.8711 143.238C73.737 143.238 74.4954 143.404 75.1465 143.736C75.804 144.068 76.3184 144.544 76.6895 145.162C77.0671 145.774 77.2591 146.5 77.2656 147.34H74.6191C74.6126 146.988 74.5378 146.669 74.3945 146.383C74.2578 146.096 74.056 145.868 73.7891 145.699C73.5286 145.523 73.2064 145.436 72.8223 145.436C72.4121 145.436 72.0768 145.523 71.8164 145.699C71.556 145.868 71.3542 146.103 71.2109 146.402C71.0677 146.695 70.9668 147.031 70.9082 147.408C70.8561 147.779 70.8301 148.17 70.8301 148.58V148.863C70.8301 149.273 70.8561 149.667 70.9082 150.045C70.9603 150.423 71.0579 150.758 71.2012 151.051C71.3509 151.344 71.556 151.575 71.8164 151.744C72.0768 151.913 72.4154 151.998 72.832 151.998ZM84.0723 143.434V145.426H77.9199V143.434H84.0723ZM79.4434 140.826H82.2559V150.816C82.2559 151.122 82.2949 151.357 82.373 151.52C82.4577 151.682 82.5814 151.796 82.7441 151.861C82.9069 151.92 83.112 151.949 83.3594 151.949C83.5352 151.949 83.6914 151.943 83.8281 151.93C83.9714 151.91 84.0918 151.891 84.1895 151.871L84.1992 153.941C83.9583 154.02 83.6979 154.081 83.418 154.127C83.138 154.173 82.8288 154.195 82.4902 154.195C81.8717 154.195 81.3314 154.094 80.8691 153.893C80.4134 153.684 80.0618 153.352 79.8145 152.896C79.5671 152.441 79.4434 151.842 79.4434 151.1V140.826ZM91.3867 151.08C91.3867 150.878 91.3281 150.696 91.2109 150.533C91.0938 150.37 90.8757 150.221 90.5566 150.084C90.2441 149.941 89.7917 149.811 89.1992 149.693C88.6654 149.576 88.1673 149.43 87.7051 149.254C87.2493 149.072 86.8522 148.854 86.5137 148.6C86.1816 148.346 85.9212 148.046 85.7324 147.701C85.5436 147.35 85.4492 146.949 85.4492 146.5C85.4492 146.057 85.5436 145.641 85.7324 145.25C85.9277 144.859 86.2044 144.514 86.5625 144.215C86.9271 143.909 87.3698 143.671 87.8906 143.502C88.418 143.326 89.0104 143.238 89.668 143.238C90.5859 143.238 91.3737 143.385 92.0312 143.678C92.6953 143.971 93.2031 144.374 93.5547 144.889C93.9128 145.396 94.0918 145.976 94.0918 146.627H91.2793C91.2793 146.354 91.2207 146.109 91.1035 145.895C90.9928 145.673 90.8171 145.501 90.5762 145.377C90.3418 145.247 90.0358 145.182 89.6582 145.182C89.3457 145.182 89.0755 145.237 88.8477 145.348C88.6198 145.452 88.444 145.595 88.3203 145.777C88.2031 145.953 88.1445 146.148 88.1445 146.363C88.1445 146.526 88.1771 146.673 88.2422 146.803C88.3138 146.926 88.4277 147.04 88.584 147.145C88.7402 147.249 88.9421 147.346 89.1895 147.438C89.4434 147.522 89.7559 147.6 90.127 147.672C90.8887 147.828 91.569 148.033 92.168 148.287C92.7669 148.535 93.2422 148.873 93.5938 149.303C93.9453 149.726 94.1211 150.283 94.1211 150.973C94.1211 151.441 94.0169 151.871 93.8086 152.262C93.6003 152.652 93.3008 152.994 92.9102 153.287C92.5195 153.574 92.0508 153.798 91.5039 153.961C90.9635 154.117 90.3548 154.195 89.6777 154.195C88.6947 154.195 87.8613 154.02 87.1777 153.668C86.5007 153.316 85.9863 152.87 85.6348 152.33C85.2897 151.783 85.1172 151.223 85.1172 150.65H87.7832C87.7962 151.035 87.8939 151.344 88.0762 151.578C88.265 151.812 88.5026 151.982 88.7891 152.086C89.082 152.19 89.3978 152.242 89.7363 152.242C90.1009 152.242 90.4036 152.193 90.6445 152.096C90.8854 151.992 91.0677 151.855 91.1914 151.686C91.3216 151.51 91.3867 151.308 91.3867 151.08ZM55.6152 191.67H57.1191C57.6009 191.67 57.998 191.589 58.3105 191.426C58.623 191.257 58.8542 191.022 59.0039 190.723C59.1602 190.417 59.2383 190.062 59.2383 189.658C59.2383 189.294 59.1667 188.971 59.0234 188.691C58.8867 188.405 58.6751 188.184 58.3887 188.027C58.1022 187.865 57.7409 187.783 57.3047 187.783C56.9596 187.783 56.6406 187.852 56.3477 187.988C56.0547 188.125 55.8203 188.317 55.6445 188.564C55.4688 188.812 55.3809 189.111 55.3809 189.463H52.5586C52.5586 188.682 52.7669 188.001 53.1836 187.422C53.6068 186.842 54.1732 186.39 54.8828 186.064C55.5924 185.739 56.3737 185.576 57.2266 185.576C58.1901 185.576 59.0332 185.732 59.7559 186.045C60.4785 186.351 61.0417 186.803 61.4453 187.402C61.849 188.001 62.0508 188.743 62.0508 189.629C62.0508 190.078 61.9466 190.514 61.7383 190.938C61.5299 191.354 61.2305 191.732 60.8398 192.07C60.4557 192.402 59.987 192.669 59.4336 192.871C58.8802 193.066 58.2585 193.164 57.5684 193.164H55.6152V191.67ZM55.6152 193.809V192.354H57.5684C58.3431 192.354 59.0234 192.441 59.6094 192.617C60.1953 192.793 60.6868 193.047 61.084 193.379C61.4811 193.704 61.7806 194.092 61.9824 194.541C62.1842 194.984 62.2852 195.475 62.2852 196.016C62.2852 196.68 62.1582 197.272 61.9043 197.793C61.6504 198.307 61.2923 198.743 60.8301 199.102C60.3743 199.46 59.8405 199.733 59.2285 199.922C58.6165 200.104 57.9492 200.195 57.2266 200.195C56.6276 200.195 56.0384 200.114 55.459 199.951C54.8861 199.782 54.3652 199.531 53.8965 199.199C53.4342 198.861 53.0632 198.438 52.7832 197.93C52.5098 197.415 52.373 196.807 52.373 196.104H55.1953C55.1953 196.468 55.2865 196.794 55.4688 197.08C55.651 197.367 55.9017 197.591 56.2207 197.754C56.5462 197.917 56.9076 197.998 57.3047 197.998C57.7539 197.998 58.138 197.917 58.457 197.754C58.7826 197.585 59.0299 197.35 59.1992 197.051C59.375 196.745 59.4629 196.39 59.4629 195.986C59.4629 195.465 59.3685 195.049 59.1797 194.736C58.9909 194.417 58.7207 194.183 58.3691 194.033C58.0176 193.883 57.6009 193.809 57.1191 193.809H55.6152Z" fill="white"/>
<path d="M102.752 40.3359L104.979 45.1992L107.205 40.3359H109.6L106.092 47.1182V51H103.865V47.1182L100.35 40.3359H102.752ZM115.474 40.3359V51H113.284V40.3359H115.474ZM118.755 40.3359V42.0571H110.054V40.3359H118.755ZM125.984 47.4624H128.174C128.13 48.1802 127.933 48.8174 127.581 49.374C127.234 49.9307 126.749 50.3652 126.124 50.6777C125.503 50.9902 124.756 51.1465 123.882 51.1465C123.199 51.1465 122.586 51.0293 122.044 50.7949C121.502 50.5557 121.038 50.2139 120.652 49.7695C120.271 49.3252 119.981 48.7881 119.781 48.1582C119.581 47.5283 119.48 46.8228 119.48 46.0415V45.3018C119.48 44.5205 119.583 43.8149 119.788 43.1851C119.998 42.5503 120.296 42.0107 120.682 41.5664C121.072 41.1221 121.539 40.7803 122.081 40.541C122.623 40.3018 123.228 40.1821 123.897 40.1821C124.786 40.1821 125.535 40.3433 126.146 40.6655C126.761 40.9878 127.237 41.4321 127.574 41.9985C127.916 42.5649 128.121 43.2095 128.189 43.9321H125.992C125.967 43.5024 125.882 43.1387 125.735 42.8408C125.589 42.5381 125.367 42.311 125.069 42.1597C124.776 42.0034 124.385 41.9253 123.897 41.9253C123.531 41.9253 123.211 41.9937 122.938 42.1304C122.664 42.2671 122.435 42.4746 122.249 42.7529C122.063 43.0312 121.924 43.3828 121.832 43.8076C121.744 44.2275 121.7 44.7207 121.7 45.2871V46.0415C121.7 46.5933 121.741 47.0791 121.824 47.499C121.907 47.9141 122.034 48.2656 122.205 48.5537C122.381 48.8369 122.605 49.0518 122.879 49.1982C123.157 49.3398 123.492 49.4106 123.882 49.4106C124.341 49.4106 124.72 49.3374 125.018 49.1909C125.315 49.0444 125.542 48.8271 125.699 48.5391C125.86 48.251 125.955 47.8921 125.984 47.4624ZM91.5898 65.1987H88.8726V63.4849H91.5898C92.0098 63.4849 92.3516 63.4165 92.6152 63.2798C92.8789 63.1382 93.0718 62.9429 93.1938 62.6938C93.3159 62.4448 93.377 62.1641 93.377 61.8516C93.377 61.5342 93.3159 61.2388 93.1938 60.9653C93.0718 60.6919 92.8789 60.4722 92.6152 60.3062C92.3516 60.1401 92.0098 60.0571 91.5898 60.0571H89.6343V69H87.437V58.3359H91.5898C92.4248 58.3359 93.1401 58.4873 93.7358 58.79C94.3364 59.0879 94.7954 59.5005 95.1128 60.0278C95.4302 60.5552 95.5889 61.1582 95.5889 61.8369C95.5889 62.5254 95.4302 63.1211 95.1128 63.624C94.7954 64.127 94.3364 64.5151 93.7358 64.7886C93.1401 65.062 92.4248 65.1987 91.5898 65.1987ZM99.0825 62.8037V69H96.9731V61.0752H98.958L99.0825 62.8037ZM101.47 61.0239L101.434 62.9795C101.331 62.9648 101.207 62.9526 101.06 62.9429C100.918 62.9282 100.789 62.9209 100.672 62.9209C100.374 62.9209 100.115 62.96 99.8955 63.0381C99.6807 63.1113 99.5 63.2212 99.3535 63.3677C99.2119 63.5142 99.1045 63.6924 99.0312 63.9023C98.9629 64.1123 98.9238 64.3516 98.9141 64.6201L98.4893 64.4883C98.4893 63.9756 98.5405 63.5044 98.6431 63.0747C98.7456 62.6401 98.8945 62.2617 99.0898 61.9395C99.29 61.6172 99.5342 61.3682 99.8223 61.1924C100.11 61.0166 100.44 60.9287 100.811 60.9287C100.928 60.9287 101.048 60.9385 101.17 60.958C101.292 60.9727 101.392 60.9946 101.47 61.0239ZM101.91 65.1182V64.9644C101.91 64.3833 101.993 63.8486 102.159 63.3604C102.325 62.8672 102.566 62.4399 102.884 62.0786C103.201 61.7173 103.592 61.4365 104.056 61.2363C104.52 61.0312 105.052 60.9287 105.652 60.9287C106.253 60.9287 106.788 61.0312 107.256 61.2363C107.725 61.4365 108.118 61.7173 108.436 62.0786C108.758 62.4399 109.002 62.8672 109.168 63.3604C109.334 63.8486 109.417 64.3833 109.417 64.9644V65.1182C109.417 65.6943 109.334 66.229 109.168 66.7222C109.002 67.2104 108.758 67.6377 108.436 68.0039C108.118 68.3652 107.728 68.646 107.264 68.8462C106.8 69.0464 106.268 69.1465 105.667 69.1465C105.066 69.1465 104.532 69.0464 104.063 68.8462C103.599 68.646 103.206 68.3652 102.884 68.0039C102.566 67.6377 102.325 67.2104 102.159 66.7222C101.993 66.229 101.91 65.6943 101.91 65.1182ZM104.019 64.9644V65.1182C104.019 65.4502 104.048 65.7603 104.107 66.0483C104.166 66.3364 104.258 66.5903 104.385 66.8101C104.517 67.0249 104.688 67.1934 104.898 67.3154C105.108 67.4375 105.364 67.4985 105.667 67.4985C105.96 67.4985 106.211 67.4375 106.421 67.3154C106.631 67.1934 106.8 67.0249 106.927 66.8101C107.054 66.5903 107.146 66.3364 107.205 66.0483C107.269 65.7603 107.3 65.4502 107.3 65.1182V64.9644C107.3 64.6421 107.269 64.3394 107.205 64.0562C107.146 63.7681 107.051 63.5142 106.919 63.2944C106.792 63.0698 106.624 62.894 106.414 62.7671C106.204 62.6401 105.95 62.5767 105.652 62.5767C105.354 62.5767 105.101 62.6401 104.891 62.7671C104.686 62.894 104.517 63.0698 104.385 63.2944C104.258 63.5142 104.166 63.7681 104.107 64.0562C104.048 64.3394 104.019 64.6421 104.019 64.9644ZM110.831 61.0752H112.947V69.4761C112.947 70.062 112.84 70.5576 112.625 70.9629C112.41 71.3682 112.1 71.6758 111.695 71.8857C111.29 72.0957 110.799 72.2007 110.223 72.2007C110.042 72.2007 109.866 72.1909 109.695 72.1714C109.52 72.1519 109.339 72.1201 109.153 72.0762L109.161 70.4575C109.278 70.4771 109.393 70.4917 109.505 70.5015C109.612 70.5161 109.722 70.5234 109.834 70.5234C110.054 70.5234 110.237 70.4868 110.384 70.4136C110.53 70.3403 110.64 70.2256 110.713 70.0693C110.792 69.918 110.831 69.7202 110.831 69.4761V61.0752ZM110.662 59.0098C110.662 58.7021 110.77 58.4482 110.984 58.248C111.204 58.0479 111.492 57.9478 111.849 57.9478C112.21 57.9478 112.498 58.0479 112.713 58.248C112.928 58.4482 113.035 58.7021 113.035 59.0098C113.035 59.3174 112.928 59.5713 112.713 59.7715C112.498 59.9717 112.21 60.0718 111.849 60.0718C111.492 60.0718 111.204 59.9717 110.984 59.7715C110.77 59.5713 110.662 59.3174 110.662 59.0098ZM118.272 69.1465C117.657 69.1465 117.105 69.0488 116.617 68.8535C116.128 68.6533 115.713 68.3774 115.372 68.0259C115.035 67.6743 114.776 67.2666 114.595 66.8027C114.415 66.334 114.324 65.8359 114.324 65.3086V65.0156C114.324 64.415 114.41 63.8657 114.581 63.3677C114.751 62.8696 114.996 62.4375 115.313 62.0713C115.635 61.7051 116.026 61.4243 116.485 61.229C116.944 61.0288 117.461 60.9287 118.038 60.9287C118.599 60.9287 119.097 61.0215 119.532 61.207C119.966 61.3926 120.33 61.6562 120.623 61.998C120.921 62.3398 121.146 62.75 121.297 63.2285C121.448 63.7021 121.524 64.2295 121.524 64.8105V65.6895H115.225V64.2832H119.451V64.1221C119.451 63.8291 119.397 63.5679 119.29 63.3384C119.188 63.104 119.031 62.9185 118.821 62.7817C118.611 62.645 118.343 62.5767 118.016 62.5767C117.737 62.5767 117.498 62.6377 117.298 62.7598C117.098 62.8818 116.934 63.0527 116.807 63.2725C116.685 63.4922 116.592 63.751 116.529 64.0488C116.47 64.3418 116.441 64.6641 116.441 65.0156V65.3086C116.441 65.626 116.485 65.9189 116.573 66.1875C116.666 66.4561 116.795 66.688 116.961 66.8833C117.132 67.0786 117.337 67.23 117.576 67.3374C117.82 67.4448 118.096 67.4985 118.404 67.4985C118.785 67.4985 119.139 67.4253 119.466 67.2788C119.798 67.1274 120.083 66.9004 120.323 66.5977L121.348 67.7109C121.182 67.9502 120.955 68.1797 120.667 68.3994C120.384 68.6191 120.042 68.7998 119.642 68.9414C119.241 69.0781 118.785 69.1465 118.272 69.1465ZM125.999 67.4985C126.258 67.4985 126.487 67.4497 126.688 67.3521C126.888 67.2495 127.044 67.1079 127.156 66.9272C127.273 66.7417 127.334 66.5244 127.339 66.2754H129.324C129.319 66.832 129.17 67.3276 128.877 67.7622C128.584 68.1919 128.191 68.5312 127.698 68.7803C127.205 69.0244 126.653 69.1465 126.043 69.1465C125.428 69.1465 124.891 69.0439 124.432 68.8389C123.978 68.6338 123.599 68.3506 123.296 67.9893C122.994 67.623 122.767 67.1982 122.615 66.7148C122.464 66.2266 122.388 65.7041 122.388 65.1475V64.9351C122.388 64.3735 122.464 63.8511 122.615 63.3677C122.767 62.8794 122.994 62.4546 123.296 62.0933C123.599 61.7271 123.978 61.4414 124.432 61.2363C124.886 61.0312 125.418 60.9287 126.028 60.9287C126.678 60.9287 127.247 61.0532 127.735 61.3022C128.228 61.5513 128.614 61.9077 128.892 62.3716C129.175 62.8306 129.319 63.375 129.324 64.0049H127.339C127.334 63.7412 127.278 63.502 127.171 63.2871C127.068 63.0723 126.917 62.9014 126.717 62.7744C126.521 62.6426 126.28 62.5767 125.992 62.5767C125.684 62.5767 125.433 62.6426 125.237 62.7744C125.042 62.9014 124.891 63.0771 124.783 63.3018C124.676 63.5215 124.6 63.7729 124.556 64.0562C124.517 64.3345 124.498 64.6274 124.498 64.9351V65.1475C124.498 65.4551 124.517 65.7505 124.556 66.0337C124.595 66.3169 124.668 66.5684 124.776 66.7881C124.888 67.0078 125.042 67.1812 125.237 67.3081C125.433 67.4351 125.687 67.4985 125.999 67.4985ZM134.429 61.0752V62.5693H129.815V61.0752H134.429ZM130.958 59.1196H133.067V66.6123C133.067 66.8418 133.096 67.0176 133.155 67.1396C133.218 67.2617 133.311 67.3472 133.433 67.396C133.555 67.4399 133.709 67.4619 133.895 67.4619C134.026 67.4619 134.144 67.457 134.246 67.4473C134.354 67.4326 134.444 67.418 134.517 67.4033L134.524 68.9561C134.344 69.0146 134.148 69.061 133.938 69.0952C133.729 69.1294 133.497 69.1465 133.243 69.1465C132.779 69.1465 132.374 69.0708 132.027 68.9194C131.685 68.7632 131.421 68.5142 131.236 68.1724C131.05 67.8306 130.958 67.3813 130.958 66.8247V59.1196ZM139.915 66.8101C139.915 66.6587 139.871 66.522 139.783 66.3999C139.695 66.2778 139.532 66.1655 139.292 66.063C139.058 65.9556 138.719 65.8579 138.274 65.77C137.874 65.6821 137.5 65.5723 137.154 65.4404C136.812 65.3037 136.514 65.1401 136.26 64.9497C136.011 64.7593 135.816 64.5347 135.674 64.2759C135.533 64.0122 135.462 63.7119 135.462 63.375C135.462 63.043 135.533 62.7305 135.674 62.4375C135.821 62.1445 136.028 61.8857 136.297 61.6611C136.57 61.4316 136.902 61.2534 137.293 61.1265C137.688 60.9946 138.133 60.9287 138.626 60.9287C139.314 60.9287 139.905 61.0386 140.398 61.2583C140.896 61.478 141.277 61.7808 141.541 62.1665C141.81 62.5474 141.944 62.9819 141.944 63.4702H139.834C139.834 63.2651 139.791 63.082 139.703 62.9209C139.62 62.7549 139.488 62.6255 139.307 62.5327C139.131 62.4351 138.902 62.3862 138.619 62.3862C138.384 62.3862 138.182 62.4277 138.011 62.5107C137.84 62.5889 137.708 62.6963 137.615 62.833C137.527 62.9648 137.483 63.1113 137.483 63.2725C137.483 63.3945 137.508 63.5044 137.557 63.6021C137.61 63.6948 137.696 63.7803 137.813 63.8584C137.93 63.9365 138.082 64.0098 138.267 64.0781C138.458 64.1416 138.692 64.2002 138.97 64.2539C139.542 64.3711 140.052 64.5249 140.501 64.7153C140.95 64.9009 141.307 65.1548 141.57 65.4771C141.834 65.7944 141.966 66.2119 141.966 66.7295C141.966 67.0811 141.888 67.4033 141.731 67.6963C141.575 67.9893 141.351 68.2456 141.058 68.4653C140.765 68.6802 140.413 68.8486 140.003 68.9707C139.598 69.0879 139.141 69.1465 138.633 69.1465C137.896 69.1465 137.271 69.0146 136.758 68.751C136.25 68.4873 135.865 68.1528 135.601 67.7476C135.342 67.3374 135.213 66.9175 135.213 66.4878H137.212C137.222 66.7759 137.295 67.0078 137.432 67.1836C137.574 67.3594 137.752 67.4863 137.967 67.5645C138.187 67.6426 138.423 67.6816 138.677 67.6816C138.951 67.6816 139.178 67.645 139.358 67.5718C139.539 67.4937 139.676 67.3911 139.769 67.2642C139.866 67.1323 139.915 66.981 139.915 66.8101ZM116.067 76.314V87H113.958V78.7456L111.424 79.5513V77.8887L115.84 76.314H116.067Z" fill="white"/>
</svg>
