<svg width="36" height="36" viewBox="0 0 36 36" fill="none" xmlns="http://www.w3.org/2000/svg">
<path d="M18 15.98C20.6289 15.98 22.76 13.8757 22.76 11.28C22.76 8.68425 20.6289 6.57999 18 6.57999C15.3711 6.57999 13.24 8.68425 13.24 11.28C13.24 13.8757 15.3711 15.98 18 15.98Z" fill="white"/>
<path d="M10.78 11.75H11.26V11.32C11.2629 10.0696 11.6157 8.84495 12.2784 7.78461C12.9411 6.72427 13.8873 5.87054 15.01 5.31999C14.6777 4.55455 14.1442 3.89342 13.4663 3.40682C12.7883 2.92023 11.9913 2.62633 11.1597 2.55635C10.3282 2.48636 9.4932 2.64291 8.74349 3.00936C7.99377 3.37581 7.3573 3.93847 6.90168 4.63759C6.44606 5.33672 6.1883 6.14619 6.15578 6.98004C6.12326 7.81389 6.3172 8.64098 6.71699 9.37346C7.11678 10.1059 7.7075 10.7165 8.4264 11.1402C9.14531 11.5639 9.96555 11.785 10.8 11.78L10.78 11.75ZM24.76 11.28V11.71H25.24C26.0634 11.7017 26.8693 11.4716 27.5729 11.044C28.2765 10.6163 28.8518 10.0069 29.2383 9.27979C29.6247 8.55272 29.808 7.73491 29.7689 6.91244C29.7297 6.08998 29.4696 5.29328 29.0158 4.6062C28.562 3.91912 27.9314 3.36708 27.1904 3.00819C26.4493 2.64929 25.6252 2.49681 24.8048 2.56679C23.9844 2.63678 23.198 2.92664 22.5284 3.40587C21.8588 3.88511 21.3309 4.53598 21 5.28999C22.123 5.83838 23.0703 6.68995 23.7347 7.74846C24.3992 8.80698 24.7543 10.0302 24.76 11.28ZM22.29 16.45C24.2783 16.8435 26.2007 17.5169 28 18.45C28.2535 18.5892 28.4831 18.7682 28.68 18.98H34V15.56C34.001 15.4288 33.9661 15.2999 33.8991 15.1871C33.8322 15.0743 33.7356 14.9819 33.62 14.92C31.0282 13.5643 28.145 12.8607 25.22 12.87H24.56C24.2135 14.2787 23.4164 15.5357 22.29 16.45V16.45ZM6.53002 20.92C6.52819 20.4164 6.6642 19.9218 6.92332 19.49C7.18244 19.0581 7.55478 18.7054 8.00002 18.47C9.7993 17.5369 11.7218 16.8635 13.71 16.47C12.5891 15.5635 11.7925 14.3178 11.44 12.92H10.78C7.85505 12.9107 4.97187 13.6143 2.38002 14.97C2.26439 15.0319 2.16788 15.1243 2.1009 15.2371C2.03393 15.3499 1.99905 15.4788 2.00002 15.61V22H6.53002V20.92ZM21.46 26.69H27.42V28.09H21.46V26.69Z" fill="white"/>
<path d="M32.81 21.26H25.94V20.26C25.94 19.9948 25.8347 19.7404 25.6472 19.5529C25.4596 19.3653 25.2053 19.26 24.94 19.26C24.6748 19.26 24.4205 19.3653 24.2329 19.5529C24.0454 19.7404 23.94 19.9948 23.94 20.26V21.26H22V18.43C20.6844 18.1537 19.3444 18.0097 18 18C14.8438 17.9868 11.7327 18.7492 8.94005 20.22C8.81566 20.2845 8.71154 20.3822 8.63918 20.5022C8.56683 20.6222 8.52906 20.7599 8.53005 20.9V26.51H15.64V32.6C15.64 32.8652 15.7454 33.1196 15.9329 33.3071C16.1205 33.4946 16.3748 33.6 16.64 33.6H32.81C33.0753 33.6 33.3296 33.4946 33.5172 33.3071C33.7047 33.1196 33.81 32.8652 33.81 32.6V22.26C33.81 21.9948 33.7047 21.7404 33.5172 21.5529C33.3296 21.3653 33.0753 21.26 32.81 21.26ZM31.81 31.62H17.64V23.26H23.94V24.17C23.94 24.4352 24.0454 24.6896 24.2329 24.8771C24.4205 25.0646 24.6748 25.17 24.94 25.17C25.2053 25.17 25.4596 25.0646 25.6472 24.8771C25.8347 24.6896 25.94 24.4352 25.94 24.17V23.26H31.81V31.62Z" fill="white"/>
</svg>
