<svg width="27" height="27" viewBox="0 0 27 27" fill="none" xmlns="http://www.w3.org/2000/svg">
<g clip-path="url(#clip0_29_7)">
<path d="M9.64286 1.6875V3.375H17.3571V1.6875C17.3571 0.755684 18.219 0 19.2857 0C20.3525 0 21.2143 0.755684 21.2143 1.6875V3.375H24.1071C25.7042 3.375 27 4.50826 27 5.90625V8.4375H0V5.90625C0 4.50826 1.29516 3.375 2.89286 3.375H5.78571V1.6875C5.78571 0.755684 6.64754 0 7.71429 0C8.78103 0 9.64286 0.755684 9.64286 1.6875ZM0 10.125H27V24.4688C27 25.8662 25.7042 27 24.1071 27H2.89286C1.29516 27 0 25.8662 0 24.4688V10.125ZM3.85714 16.0312C3.85714 16.4953 4.28866 16.875 4.82143 16.875H6.75C7.28036 16.875 7.71429 16.4953 7.71429 16.0312V14.3438C7.71429 13.8797 7.28036 13.5 6.75 13.5H4.82143C4.28866 13.5 3.85714 13.8797 3.85714 14.3438V16.0312ZM11.5714 16.0312C11.5714 16.4953 12.0054 16.875 12.5357 16.875H14.4643C14.9946 16.875 15.4286 16.4953 15.4286 16.0312V14.3438C15.4286 13.8797 14.9946 13.5 14.4643 13.5H12.5357C12.0054 13.5 11.5714 13.8797 11.5714 14.3438V16.0312ZM20.25 13.5C19.7196 13.5 19.2857 13.8797 19.2857 14.3438V16.0312C19.2857 16.4953 19.7196 16.875 20.25 16.875H22.1786C22.7089 16.875 23.1429 16.4953 23.1429 16.0312V14.3438C23.1429 13.8797 22.7089 13.5 22.1786 13.5H20.25ZM3.85714 22.7812C3.85714 23.2453 4.28866 23.625 4.82143 23.625H6.75C7.28036 23.625 7.71429 23.2453 7.71429 22.7812V21.0938C7.71429 20.6297 7.28036 20.25 6.75 20.25H4.82143C4.28866 20.25 3.85714 20.6297 3.85714 21.0938V22.7812ZM12.5357 20.25C12.0054 20.25 11.5714 20.6297 11.5714 21.0938V22.7812C11.5714 23.2453 12.0054 23.625 12.5357 23.625H14.4643C14.9946 23.625 15.4286 23.2453 15.4286 22.7812V21.0938C15.4286 20.6297 14.9946 20.25 14.4643 20.25H12.5357ZM19.2857 22.7812C19.2857 23.2453 19.7196 23.625 20.25 23.625H22.1786C22.7089 23.625 23.1429 23.2453 23.1429 22.7812V21.0938C23.1429 20.6297 22.7089 20.25 22.1786 20.25H20.25C19.7196 20.25 19.2857 20.6297 19.2857 21.0938V22.7812Z" fill="black"/>
</g>
<defs>
<clipPath id="clip0_29_7">
<rect width="27" height="27" fill="white"/>
</clipPath>
</defs>
</svg>
