<svg width="44" height="38" viewBox="0 0 44 38" fill="none" xmlns="http://www.w3.org/2000/svg">
<path d="M12.8334 11.875C17.896 11.875 22 10.1028 22 7.91668C22 5.73055 17.896 3.95834 12.8334 3.95834C7.77074 3.95834 3.66669 5.73055 3.66669 7.91668C3.66669 10.1028 7.77074 11.875 12.8334 11.875Z" stroke="white" stroke-width="4" stroke-linecap="round" stroke-linejoin="round"/>
<path d="M3.66669 7.91669V13.4584C3.66669 15.6441 7.7706 17.4167 12.8334 17.4167C17.8961 17.4167 22 15.6441 22 13.4584V7.91669" stroke="white" stroke-width="4" stroke-linecap="round" stroke-linejoin="round"/>
<path d="M3.66669 13.4583V19C3.66669 21.1858 7.7706 22.9583 12.8334 22.9583C17.8961 22.9583 22 21.1858 22 19V13.4583" stroke="white" stroke-width="4" stroke-linecap="round" stroke-linejoin="round"/>
<path d="M3.66669 19V24.5417C3.66669 26.7275 7.7706 28.5 12.8334 28.5C17.8961 28.5 22 26.7275 22 24.5417V19" stroke="white" stroke-width="4" stroke-linecap="round" stroke-linejoin="round"/>
<path d="M3.66669 24.5417V30.0834C3.66669 32.2691 7.7706 34.0417 12.8334 34.0417C17.8961 34.0417 22 32.2691 22 30.0834V24.5417" stroke="white" stroke-width="4" stroke-linecap="round" stroke-linejoin="round"/>
<path d="M31.1667 22.9584C36.2293 22.9584 40.3333 21.1861 40.3333 19C40.3333 16.8139 36.2293 15.0417 31.1667 15.0417C26.1041 15.0417 22 16.8139 22 19C22 21.1861 26.1041 22.9584 31.1667 22.9584Z" stroke="white" stroke-width="4" stroke-linecap="round" stroke-linejoin="round"/>
<path d="M22 19V24.5417C22 26.7275 26.1039 28.5 31.1667 28.5C36.2294 28.5 40.3333 26.7275 40.3333 24.5417V19" stroke="white" stroke-width="4" stroke-linecap="round" stroke-linejoin="round"/>
<path d="M22 24.5417V30.0834C22 32.2691 26.1039 34.0417 31.1667 34.0417C36.2294 34.0417 40.3333 32.2691 40.3333 30.0834V24.5417" stroke="white" stroke-width="4" stroke-linecap="round" stroke-linejoin="round"/>
</svg>
