<svg width="48" height="48" viewBox="0 0 48 48" fill="none" xmlns="http://www.w3.org/2000/svg">
<mask id="mask0_304_20" style="mask-type:alpha" maskUnits="userSpaceOnUse" x="8" y="1" width="34" height="45">
<path d="M18 8H11C10.7348 8 10.4804 8.10536 10.2929 8.29289C10.1054 8.48043 10 8.73478 10 9V43C10 43.2652 10.1054 43.5196 10.2929 43.7071C10.4804 43.8946 10.7348 44 11 44H39C39.2652 44 39.5196 43.8946 39.7071 43.7071C39.8946 43.5196 40 43.2652 40 43V9C40 8.73478 39.8946 8.48043 39.7071 8.29289C39.5196 8.10536 39.2652 8 39 8H32" stroke="white" stroke-width="4"/>
<path d="M18 13V8H21.95C21.9633 8 21.976 7.99473 21.9854 7.98536C21.9947 7.97598 22 7.96326 22 7.95V6C22 5.60603 22.0776 5.21593 22.2284 4.85195C22.3791 4.48797 22.6001 4.15726 22.8787 3.87868C23.1573 3.6001 23.488 3.37913 23.8519 3.22836C24.2159 3.0776 24.606 3 25 3C25.394 3 25.7841 3.0776 26.1481 3.22836C26.512 3.37913 26.8427 3.6001 27.1213 3.87868C27.3999 4.15726 27.6209 4.48797 27.7716 4.85195C27.9224 5.21593 28 5.60603 28 6V7.95C28 7.978 28.022 8 28.05 8H32V13C32 13.2652 31.8946 13.5196 31.7071 13.7071C31.5196 13.8946 31.2652 14 31 14H19C18.7348 14 18.4804 13.8946 18.2929 13.7071C18.1054 13.5196 18 13.2652 18 13Z" fill="white" stroke="white" stroke-width="4"/>
</mask>
<g mask="url(#mask0_304_20)">
<path d="M0 0H48V48H0V0Z" fill="black"/>
</g>
</svg>
