<svg width="45" height="45" viewBox="0 0 45 45" fill="none" xmlns="http://www.w3.org/2000/svg">
<path d="M38.25 2.25H33.75C33.1533 2.25 32.581 2.48705 32.159 2.90901C31.7371 3.33097 31.5 3.90326 31.5 4.5V42.732H40.5V4.5C40.5 3.90326 40.2629 3.33097 39.841 2.90901C39.419 2.48705 38.8467 2.25 38.25 2.25ZM24.75 15.75H20.25C19.6533 15.75 19.081 15.9871 18.659 16.409C18.2371 16.831 18 17.4033 18 18V42.732H27V18C27 17.4033 26.7629 16.831 26.341 16.409C25.919 15.9871 25.3467 15.75 24.75 15.75ZM11.25 29.25H6.75C6.15326 29.25 5.58097 29.4871 5.15901 29.909C4.73705 30.331 4.5 30.9033 4.5 31.5V42.732H13.5V31.5C13.5 30.9033 13.2629 30.331 12.841 29.909C12.419 29.4871 11.8467 29.25 11.25 29.25Z" fill="#F8F8F8"/>
</svg>
